<?xml version="1.0" encoding="UTF-8"?>
<svg id="Layer_1" data-name="Layer 1" xmlns="http://www.w3.org/2000/svg" xmlns:xlink="http://www.w3.org/1999/xlink" viewBox="0 0 348.4 85.06">
  <defs>
    <style>
      .cls-1 {
        fill: url(#linear-gradient);
      }

      .cls-2 {
        fill: #16072d;
      }

      .cls-3 {
        fill: #1d1546;
      }

      .cls-4 {
        fill: url(#linear-gradient-2);
      }
    </style>
    <linearGradient id="linear-gradient" x1="277.71" y1="71.55" x2="340.05" y2="16.41" gradientUnits="userSpaceOnUse">
      <stop offset="0" stop-color="#ff89b7"/>
      <stop offset=".26" stop-color="#cf87d1"/>
      <stop offset=".55" stop-color="#9a8fdd"/>
      <stop offset="1" stop-color="#40f5a4"/>
    </linearGradient>
    <linearGradient id="linear-gradient-2" x1="277.47" y1="71.28" x2="339.82" y2="16.14" xlink:href="#linear-gradient"/>
  </defs>
  <g>
    <path class="cls-1" d="m348.4,27.87v41.22l-23.54-5.14V25.82c0-2.59-1.16-4.97-3.19-6.56-2.04-1.57-4.62-2.12-7.11-1.49l-36.82,9.26v-15.58l37.5-9.46c8.01-2.02,16.37-.25,22.9,4.84,6.53,5.09,10.26,12.75,10.26,21.04Z"/>
    <path class="cls-2" d="m324.87,25.82v38.12l-38.8-8.46c-4.82-1.05-8.32-5.38-8.32-10.3v-18.15l36.82-9.26c2.49-.63,5.07-.08,7.11,1.49,2.03,1.59,3.19,3.97,3.19,6.56Z"/>
    <path class="cls-4" d="m324.87,63.94v19.95l-44.02-9.6c-11.44-2.5-19.74-12.81-19.74-24.5v-18.56l16.64-4.2v18.15c0,4.92,3.5,9.25,8.32,10.3l38.8,8.46Z"/>
  </g>
  <g>
    <path class="cls-3" d="m242.23,23.65c0-.38-.16-.76-.31-1.44-1.49.76-2.71,1.59-4.05,2.03-2.53.84-3.21,2.43-3.13,5.03.19,6.65.13,13.31.01,19.97-.1,5.68-3.1,9.15-8.43,9.91-1.69.24-3.42.09-5.14.09-8.45-.01-11.99-3.51-12.03-11.99-.02-6.15,0-12.28-.01-18.43,0-.88-.09-1.76-.18-3-1.88.98-3.34,1.87-4.89,2.51-1.75.72-2.37,1.8-2.33,3.72.13,5.54.11,11.09.02,16.64-.09,5.91-2.67,9.43-7.98,10.27-3.08.49-6.34.46-9.44.03-4.64-.65-6.97-3.23-7.71-7.96-.34-2.17-.39-4.41-.42-6.62-.05-4.83-.01-9.66-.01-14.92-1.92.96-3.38,1.81-4.93,2.43-1.83.74-2.54,1.84-2.45,3.89.18,4.17.1,8.36.03,12.54-.12,7.21-3.83,10.84-11.01,10.88-2.91.01-5.83.03-8.74-.02-5.29-.08-8.69-2.98-9.51-8.16-.26-1.6-.39-3.22-.4-4.84-.04-7.08-.01-14.17-.02-21.25,0-.8-.09-1.62-.15-2.78-1.81.9-3.27,1.76-4.84,2.36-1.88.72-2.44,1.88-2.4,3.89.13,6.74.11,13.49.03,20.23-.08,6.86-3.93,10.55-10.78,10.57-1.97,0-3.93.01-5.9-.01-5.74-.06-9.51-3.02-9.83-8.63-.47-8.34-.35-16.71-.47-25.06-.01-.98,0-1.97,0-3.4-1.97.98-3.43,1.84-4.99,2.44-1.88.72-2.44,1.89-2.4,3.9.13,6.83.11,13.65.02,20.48-.08,6.58-3.91,10.25-10.49,10.28-1.98.01-3.94.01-5.91-.01-6.27-.04-10.11-3.46-10.18-9.68-.2-15.19-.14-30.39-.19-45.58V0c-1.45.73-2.3,1.31-3.23,1.6-3.57,1.11-4.49,3.4-4.42,7.11.25,13.4.12,26.8.03,40.2-.04,5.8-3.02,9.36-8.46,10.17-2.43.36-4.95.15-7.43.14-6.41-.02-10.15-3.46-10.28-9.87-.19-9.99-.1-19.98-.15-29.96,0-.99-.1-1.98-.2-3.54-3.47,2.46-8.82,2.29-7.25,8.79-.86-.53-1.2-.74-1.55-.94-8.86-5.05-19.42-2.39-24.51,6.41-3.96,6.86-4.04,14.17-1.37,21.48,2.77,7.61,9.21,11.66,17.29,11.48,4.76-.11,8.74-1.91,12.37-5.03,2.29,3.77,5.22,6.78,9.4,7.27,5.22.61,10.55.61,15.83.4,4.06-.16,7.3-2.54,10.08-5.54,3.4,3.95,7.53,5.74,12.38,5.88,2.32.07,4.63-.08,6.94.03,5.84.29,11.02-1.13,15.13-5.78,3.79,4.34,8.55,5.98,14.06,5.77,1.62-.06,3.25-.07,4.88.01,5.9.3,11.2-1.01,15.35-5.82,3.31,3.84,7.41,5.67,12.27,5.79,2.56.06,5.14-.07,7.7.03,6.52.27,12.72-.28,17-6.29,4.34,5.83,10.25,6.33,16.54,6.35,6.39.01,12.36-.57,16.51-6.33,3.62,4.8,8.38,6.41,13.91,6.26,2.06-.05,4.12.01,6.17-.01,9.35-.11,16.16-6.48,16.45-15.8.26-8.87.12-17.75.14-26.63ZM29.25,49.79c-.03.77-.28,1.68-.75,2.27-5.79,7.24-16.64,5.72-19.83-2.91-2.14-5.79-1.84-11.61,1.84-16.82,4.68-6.62,13.96-4.76,18.18.48.41.51.42,1.43.43,2.16.05,2.47.02,4.94.02,7.41h.14c0,2.47.06,4.94-.03,7.4Z"/>
    <path class="cls-3" d="m138.63,4.84c.02,2.84-1.63,4.54-4.37,4.51-2.77-.02-4.43-1.72-4.43-4.5.01-2.74,1.73-4.4,4.54-4.37,2.67.03,4.24,1.64,4.25,4.36Z"/>
    <path class="cls-3" d="m104.36,80.66c-.04,3.01-1.45,4.44-4.35,4.4-2.83-.03-4.34-1.62-4.31-4.5.03-2.74,1.78-4.41,4.55-4.34,2.69.07,4.14,1.64,4.11,4.44Z"/>
    <path class="cls-3" d="m100.26,76.22c2.69.07,4.14,1.64,4.11,4.44-.04,3.01-1.45,4.44-4.35,4.4-2.83-.03-4.34-1.62-4.31-4.5.03-2.74,1.78-4.41,4.55-4.34Z"/>
    <path class="cls-3" d="m129.84,4.85c.01-2.74,1.73-4.4,4.54-4.37,2.67.03,4.24,1.64,4.25,4.36.02,2.84-1.63,4.54-4.37,4.51-2.77-.02-4.43-1.72-4.43-4.5Z"/>
    <path class="cls-3" d="m242.23,23.65c0-.38-.16-.76-.31-1.44-1.49.76-2.71,1.59-4.05,2.03-2.53.84-3.21,2.43-3.13,5.03.19,6.65.13,13.31.01,19.97-.1,5.68-3.1,9.15-8.43,9.91-1.69.24-3.42.09-5.14.09-8.45-.01-11.99-3.51-12.03-11.99-.02-6.15,0-12.28-.01-18.43,0-.88-.09-1.76-.18-3-1.88.98-3.34,1.87-4.89,2.51-1.75.72-2.37,1.8-2.33,3.72.13,5.54.11,11.09.02,16.64-.09,5.91-2.67,9.43-7.98,10.27-3.08.49-6.34.46-9.44.03-4.64-.65-6.97-3.23-7.71-7.96-.34-2.17-.39-4.41-.42-6.62-.05-4.83-.01-9.66-.01-14.92-1.92.96-3.38,1.81-4.93,2.43-1.83.74-2.54,1.84-2.45,3.89.18,4.17.1,8.36.03,12.54-.12,7.21-3.83,10.84-11.01,10.88-2.91.01-5.83.03-8.74-.02-5.29-.08-8.69-2.98-9.51-8.16-.26-1.6-.39-3.22-.4-4.84-.04-7.08-.01-14.17-.02-21.25,0-.8-.09-1.62-.15-2.78-1.81.9-3.27,1.76-4.84,2.36-1.88.72-2.44,1.88-2.4,3.89.13,6.74.11,13.49.03,20.23-.08,6.86-3.93,10.55-10.78,10.57-1.97,0-3.93.01-5.9-.01-5.74-.06-9.51-3.02-9.83-8.63-.47-8.34-.35-16.71-.47-25.06-.01-.98,0-1.97,0-3.4-1.97.98-3.43,1.84-4.99,2.44-1.88.72-2.44,1.89-2.4,3.9.13,6.83.11,13.65.02,20.48-.08,6.58-3.91,10.25-10.49,10.28-1.98.01-3.94.01-5.91-.01-6.27-.04-10.11-3.46-10.18-9.68-.2-15.19-.14-30.39-.19-45.58V0c-1.45.73-2.3,1.31-3.23,1.6-3.57,1.11-4.49,3.4-4.42,7.11.25,13.4.12,26.8.03,40.2-.04,5.8-3.02,9.36-8.46,10.17-2.43.36-4.95.15-7.43.14-6.41-.02-10.15-3.46-10.28-9.87-.19-9.99-.1-19.98-.15-29.96,0-.99-.1-1.98-.2-3.54-3.47,2.46-8.82,2.29-7.25,8.79-.86-.53-1.2-.74-1.55-.94-8.86-5.05-19.42-2.39-24.51,6.41-3.96,6.86-4.04,14.17-1.37,21.48,2.77,7.61,9.21,11.66,17.29,11.48,4.76-.11,8.74-1.91,12.37-5.03,2.29,3.77,5.22,6.78,9.4,7.27,5.22.61,10.55.61,15.83.4,4.06-.16,7.3-2.54,10.08-5.54,3.4,3.95,7.53,5.74,12.38,5.88,2.32.07,4.63-.08,6.94.03,5.84.29,11.02-1.13,15.13-5.78,3.79,4.34,8.55,5.98,14.06,5.77,1.62-.06,3.25-.07,4.88.01,5.9.3,11.2-1.01,15.35-5.82,3.31,3.84,7.41,5.67,12.27,5.79,2.56.06,5.14-.07,7.7.03,6.52.27,12.72-.28,17-6.29,4.34,5.83,10.25,6.33,16.54,6.35,6.39.01,12.36-.57,16.51-6.33,3.62,4.8,8.38,6.41,13.91,6.26,2.06-.05,4.12.01,6.17-.01,9.35-.11,16.16-6.48,16.45-15.8.26-8.87.12-17.75.14-26.63ZM29.25,49.79c-.03.77-.28,1.68-.75,2.27-5.79,7.24-16.64,5.72-19.83-2.91-2.14-5.79-1.84-11.61,1.84-16.82,4.68-6.62,13.96-4.76,18.18.48.41.51.42,1.43.43,2.16.05,2.47.02,4.94.02,7.41h.14c0,2.47.06,4.94-.03,7.4Z"/>
  </g>
</svg>