<?xml version="1.0" encoding="UTF-8"?>
<svg id="Layer_1" data-name="Layer 1" xmlns="http://www.w3.org/2000/svg" viewBox="0 0 1024 672">
  <defs>
    <style>
      .cls-1 {
        fill: #fff;
      }
    </style>
  </defs>
  <path class="cls-1" d="m943.93,164.1c-10.72,33.18-24.31,49.77-40.75,49.77-8.81,0-17.79-2.09-26.98-6.29l-5.17,1.14c-9.96,17.55-18.56,29.66-25.83,36.32-7.27,6.68-16.46,10.01-27.55,10.01-8.04,0-16.27-2.09-24.68-6.29-3.83-1.9-7.46-3.24-10.91-4-3.44-.76-6.7-1.14-9.76-1.14-9.95,0-17.99,4.2-24.11,12.58l-19.52,25.74c-12.75,16.23-29.48,24.86-50.08,26.07-1.42-.2-2.88-.33-4.45-.33-25.26,0-37.88-15.82-37.88-47.48,0-7.24,1.15-16.02,3.44-26.31l-12.06-2.29c-17.6,36.23-27.55,69.6-29.85,100.11-2.68,11.44-7.37,21.45-14.06,30.03-6.65,8.52-15.1,13-25.34,13.42-9.39-.05-17.13-1.94-23.16-5.7-6.13-3.81-13.59-5.72-22.38-5.72-9.57,0-17.42,4.2-23.53,12.58l-19.52,25.74c-13.78,17.54-32.14,26.31-55.1,26.31-.08,0-.15.01-.23.01-.12,0-.23-.01-.34-.01-19.14,0-33.01-6.2-41.62-18.59-8.61-12.39-14.06-28.89-16.36-49.48-2.29-20.59-3.44-43.47-3.44-68.64,0-52.63,1.24-97.62,3.73-135,2.48-37.37,6.03-67.11,10.62-89.24l-11.48-3.43c-7.28,17.16-13.2,33.66-17.8,49.48-4.59,15.83-8.13,32.13-10.62,48.91-2.49,16.78-4.5,35.66-6.03,56.63-.39,9.54-1.15,22.6-2.3,39.18-1.15,16.59-2.29,36.9-3.44,60.92-2.3,47.29-5.17,81.61-8.61,102.97-6.56,39.95-25.81,60.82-57.69,62.73-1.51-.24-3.12-.38-4.88-.38-7.66,0-16.93-.95-27.84-2.86-10.91-1.9-20.76-2.86-29.56-2.86-25.64,0-48.6,11.07-68.88,33.18-20.29,22.12-38.27,52.43-53.96,90.95l11.48,5.15c10.71-14.11,20.75-24.79,30.13-32.03,9.37-7.25,21.14-10.87,35.3-10.87,8.8,0,18.08,1.62,27.84,4.86,6.71,2.22,13.07,3.63,19.15,4.33,2.33.73,5.03,1.11,8.12,1.11,23.72,0,43.81-6.48,60.27-19.45,11.48-9.15,21.52-19.45,30.13-30.89,8.61-11.44,15.78-22.5,21.52-33.18,5.74-10.67,9.76-19.45,12.05-26.31,2.3,7.25,5.83,15.07,10.62,23.45,4.78,8.39,11.67,15.45,20.66,21.17,8.7,5.54,20.03,8.37,33.94,8.55.27,0,.51.03.78.03.09,0,.17,0,.25,0,.11,0,.21,0,.32,0,.2,0,.41-.03.61-.04,12.13-.19,22.74-3.31,31.82-9.4,9.37-6.29,17.98-14.68,25.83-25.17,7.84-10.48,15.59-21.83,23.25-34.04,5.35-8.39,9.95-15.16,13.78-20.31,3.82-5.15,8.04-7.72,12.63-7.72,3.82,0,9.37,2.29,16.65,6.86,8.04,4.58,17.41,6.86,28.13,6.86.06,0,.11,0,.17,0,10.64-.04,20.34-3.55,29.1-10.58,8.8-7.05,16.26-15.44,22.38-25.17,6.12-9.73,10.52-18.39,13.2-26.03,2.67,4.96,7.27,10.21,13.78,15.73,4.79,4.08,11.05,6.64,18.75,7.71,2.46.77,5.2,1.16,8.23,1.16,12.63,0,23.62-3.24,33-9.73,9.37-6.48,17.98-14.96,25.83-25.45,7.84-10.48,15.59-21.64,23.25-33.46,7.65-12.2,13.01-19.92,16.07-23.17,3.06-3.24,6.5-4.86,10.33-4.86s9.37,2.29,16.65,6.86c8.04,4.58,17.41,6.86,28.13,6.86,20.66,0,39.6-13.92,56.82-41.76,3.44,1.14,6.89,1.91,10.33,2.29,3.44.38,6.69.57,9.76.57,40.56-.76,68.88-36.99,84.95-108.69l-16.07-4Z"/>
  <path class="cls-1" d="m620.93,123.87c-21.28,0-38.53,17.25-38.53,38.53h0c0,21.14,17.13,38.27,38.27,38.27h0c21.28,0,38.53-17.25,38.53-38.53v-38.27h-38.27Zm15.23,38.35c0,8.51-6.9,15.41-15.41,15.41s-15.31-6.85-15.31-15.31,6.9-15.41,15.41-15.41h15.31v15.31Z"/>
  <g>
    <path class="cls-1" d="m563.2,559.95c0-3.9,4.19-6.28,4.62-6.07,3.55,4.01,9.57,7.15,17.31,7.15,5.91,0,9.25-2.06,9.25-5.42,0-4.12-4.2-4.87-11.18-6.39-7.2-1.63-18.49-3.9-18.49-15.82,0-10.29,8.28-17.12,21.93-17.12,10.65,0,17.2,3.03,19.89,7.15.86,1.3,1.29,2.71,1.29,4.22,0,4.01-4.62,6.72-4.84,6.39-3.55-4.12-9.35-7.15-15.37-7.15s-9.03,2.17-9.03,5.52c0,3.79,4.19,4.55,11.18,6.17,7.53,1.63,19.35,4.01,19.35,15.92,0,10.61-8.39,17.01-23.12,17.01-8.39,0-14.3-1.63-18.17-4.01-3.01-2.06-4.62-4.66-4.62-7.58Z"/>
    <path class="cls-1" d="m669.53,538.07v25.46c0,5.52-2.8,7.26-6.66,7.26h-1.61c-4.09,0-6.88-1.63-6.88-7.26v-23.07c0-6.93-3.55-11.26-9.68-11.26-5.27,0-9.46,2.71-11.61,6.82v27.51c0,5.52-2.8,7.26-6.66,7.26h-1.61c-4.09,0-6.88-1.63-6.88-7.26v-44.85c0-.43,2.69-1.73,5.7-1.73,4.08,0,8.06,2.06,9.03,8.88,3.76-5.63,9.35-9.53,17.31-9.53,13.76,0,19.57,9.75,19.57,21.77Z"/>
    <path class="cls-1" d="m695.12,565.59c-.54,3.9-3.01,5.2-6.24,5.2h-1.61c-3.98,0-6.77-1.63-6.77-7.26v-66.73c0-.43,2.58-1.73,5.7-1.73,4.41,0,9.46,2.38,9.46,12.24v17.66c3.66-5.42,9.46-8.67,16.88-8.67,14.19,0,24.3,10.72,24.3,27.62s-10,27.95-24.51,27.95c-8.17,0-14.19-4.22-16.88-9.42l-.32,3.14Zm13.76-37.04c-6.45,0-11.07,3.36-13.33,8.66v10.29c.22,7.15,6.02,12.13,13.12,12.13,8.17,0,13.66-6.28,13.66-15.49s-5.48-15.6-13.44-15.6Z"/>
    <path class="cls-1" d="m745.76,563.53v-66.73c0-.43,2.69-1.73,5.7-1.73,4.52,0,9.46,2.38,9.46,12.24v56.22c0,5.52-2.69,7.26-6.67,7.26h-1.5c-4.09,0-6.99-1.63-6.99-7.26Z"/>
    <path class="cls-1" d="m803.81,538.83h1.72c0-.54,0-1.08-.11-1.52-.22-6.17-3.98-9.53-10.65-9.53-7.31,0-11.07,3.68-13.01,7.69,0,.22-9.78.87-9.78-6.07,0-2.38,1.08-4.77,3.23-6.93,3.55-3.68,10.32-6.17,20.54-6.17,16.56,0,24.73,7.69,24.73,21.88v31.2c0,.76-2.8,1.73-5.7,1.73-3.66,0-6.56-1.52-7.96-5.09-.32-.98-.65-2.17-.75-3.57-3.76,5.74-10.54,9.1-18.39,9.1-10.97,0-17.63-6.07-17.63-15.06,0-11.91,11.51-17.33,33.76-17.66Zm1.72,7.69h-2.9c-11.94.43-18.39,2.71-18.39,8.66,0,4.01,3.12,6.5,8.17,6.5,7.63,0,13.01-4.66,13.12-11.48v-3.68Z"/>
  </g>
  <path class="cls-1" d="m492.93,507.87c-21.28,0-38.53,17.25-38.53,38.53h0c0,21.14,17.13,38.27,38.27,38.27h0c21.28,0,38.53-17.25,38.53-38.53v-38.27h-38.27Zm15.23,38.35c0,8.51-6.9,15.41-15.41,15.41s-15.31-6.85-15.31-15.31,6.9-15.41,15.41-15.41h15.31v15.31Z"/>
</svg>