<?xml version="1.0" encoding="UTF-8"?>
<svg id="Layer_1" data-name="Layer 1" xmlns="http://www.w3.org/2000/svg" viewBox="0 0 448 160">
  <defs>
    <style>
      .cls-1 {
        fill: #bbbaba;
      }
    </style>
  </defs>
  <g>
    <path class="cls-1" d="m32,114.03c0-1.53,1.94-2.65,2.07-2.47,1.63,2.43,4.67,4.45,8.59,4.45s6.21-1.66,6.21-4.54c0-3.28-3.35-4.04-7.14-4.94-4.4-1.03-8.99-2.6-8.99-8.49,0-4.94,4.18-8.44,10.26-8.44,3.74,0,6.47,1.08,8.06,2.38,1.15.9,1.72,1.93,1.72,2.78,0,1.66-2.03,2.69-2.11,2.56-1.5-2.2-4.32-3.91-7.62-3.91-3.57,0-5.9,1.75-5.9,4.45,0,3.19,2.77,3.68,6.74,4.63,4.85,1.12,9.51,3.05,9.51,8.67s-4.05,8.67-10.7,8.67c-4.4,0-7.53-1.39-9.25-3.01-.97-.94-1.45-1.93-1.45-2.78Z"/>
    <path class="cls-1" d="m70.67,106.26h.57v-.45c0-3.28-1.85-5.07-5.24-5.07-3.22,0-5.11,1.71-6.08,3.68,0,.05-2.69,0-2.69-2.16,0-.81.48-1.8,1.45-2.69,1.45-1.35,4.01-2.47,7.62-2.47,5.99,0,9.25,3.14,9.25,8.62v13.25c0,.22-.79.49-1.59.49-1.19,0-2.16-.54-2.51-1.98-.09-.4-.18-.9-.18-1.48-1.63,2.34-4.4,3.73-7.62,3.73-4.54,0-7.22-2.47-7.22-6.15,0-4.99,4.67-7.14,14.23-7.32Zm.57,2.78l-1.19.04c-6.17.22-9.34,1.39-9.34,4.31,0,1.93,1.5,3.14,4.01,3.14,3.79,0,6.52-2.43,6.52-5.84v-1.66Z"/>
    <path class="cls-1" d="m78.24,98.72c-.09-.27.88-1.3,2.29-1.3,1.23,0,2.03.54,2.78,2.65l5.33,15.23,5.51-15.23c.75-2.11,1.59-2.65,2.69-2.65,1.37,0,2.33,1.08,2.25,1.3l-7.71,19.4c-.4.99-1.28,1.39-2.69,1.39-1.5,0-2.25-.31-2.64-1.3l-7.8-19.49Z"/>
    <path class="cls-1" d="m111.54,97.1c6.12,0,10.17,4.4,10.17,10.87v.36c0,.94-.31,1.3-1.32,1.3h-15.64c0,.27.04.54.09.81.62,3.55,3.39,5.88,7.14,5.88s5.55-1.66,6.65-3.59c.09-.09,2.29.31,2.29,2.2,0,.94-.79,2.16-2.33,3.14-1.54.99-3.79,1.75-6.7,1.75-6.69,0-11.19-4.54-11.19-11.27s4.58-11.45,10.84-11.45Zm-.04,3.37c-3.48,0-6.17,2.56-6.7,6.15h12.69c-.22-3.73-2.47-6.15-5.99-6.15Z"/>
    <path class="cls-1" d="m133.6,117.31v-24.7c0-1.57.75-2.6,2.16-2.6h.75c1.37,0,1.89.58,2.73,1.75l14.09,20.39v-20.03c0-1.39.57-2.11,1.89-2.11h.53c1.23,0,1.85.72,1.85,2.11v24.7c0,1.62-.79,2.6-2.11,2.6h-.35c-1.37,0-1.72-.4-2.42-1.39l-14.84-21.42v20.7c0,1.39-.62,2.11-1.94,2.11h-.48c-1.28,0-1.85-.72-1.85-2.11Z"/>
    <path class="cls-1" d="m173.2,97.1c6.47,0,11.06,4.76,11.06,11.41s-4.58,11.32-11.1,11.32-11.1-4.72-11.1-11.41,4.58-11.32,11.14-11.32Zm-.04,3.64c-4.05,0-7.09,3.23-7.09,7.68s3.04,7.77,7.09,7.77,7.05-3.28,7.05-7.68-2.95-7.77-7.05-7.77Z"/>
    <path class="cls-1" d="m191.83,118.07l-5.29-19.36c-.09-.27,1.32-1.3,2.6-1.3.92,0,1.94.54,2.29,2.38l3.3,15.14,4.05-13.07c.31-1.08,1.06-1.57,2.69-1.57s2.33.49,2.64,1.57l3.92,12.98,3.26-15.05c.31-1.84,1.37-2.38,2.25-2.38,1.28,0,2.55,1.08,2.51,1.3l-5.24,19.36c-.26,1.08-1.06,1.44-2.64,1.44-1.81,0-2.29-.36-2.69-1.57l-4.1-13.07-4.23,13.07c-.4,1.17-.93,1.57-2.64,1.57-1.59,0-2.38-.36-2.69-1.44Z"/>
    <path class="cls-1" d="m219.88,116.05c.4-1.39.75-2.11,2.25-2.11h.4c1.1,0,1.85.72,1.85,2.11v.22c0,.76-.18,1.57-1.01,2.69l-3.66,5.75c-.57.76-2.55.31-2.2-1.03l2.38-7.63Z"/>
    <path class="cls-1" d="m235.96,116.64v-23.85c0-1.57.97-2.6,2.42-2.6h9.38c6.21,0,9.6,2.65,9.6,7.55,0,3.14-1.76,5.25-5.02,6.24,4.23.99,6.17,3.73,6.17,7.14,0,5.43-3.39,8.13-10.84,8.13h-9.29c-1.45,0-2.42-1.03-2.42-2.6Zm11.23-13.79c3.35,0,5.46-1.8,5.46-4.58s-1.85-4.36-5.55-4.36h-6.65v8.94h6.74Zm.18,12.67c4.58,0,6.47-1.39,6.47-4.76,0-3.05-2.11-4.58-6.34-4.58h-7.05v9.34h6.92Z"/>
    <path class="cls-1" d="m281.63,99.57v19.36c0,.13-.7.49-1.54.49-1.06,0-2.16-.4-2.6-2.02-.09-.4-.18-.85-.18-1.39-1.5,2.2-3.79,3.77-7.05,3.77-5.59,0-8.15-3.86-8.15-9.25v-10.96c0-1.62.79-2.16,1.89-2.16h.48c1.15,0,1.94.49,1.94,2.16v10.42c0,3.73,1.85,5.93,5.07,5.93,2.64,0,4.71-1.53,5.81-3.82v-12.53c0-1.62.79-2.16,1.89-2.16h.48c1.15,0,1.94.49,1.94,2.16Z"/>
    <path class="cls-1" d="m290.79,126.79l3.52-8.76c-.97-.09-1.5-.36-1.85-1.26l-7.58-18.05c-.09-.27.88-1.3,2.29-1.3,1.23,0,2.07.58,2.78,2.52l5.73,14.91,5.07-14.82c.62-1.98,1.59-2.6,2.73-2.6s2.38.99,2.29,1.21l-10,26.9c-.7,1.93-1.67,2.47-2.69,2.47-1.23,0-2.38-.99-2.29-1.21Z"/>
    <path class="cls-1" d="m316.77,116.68v-24.57c0-1.44.66-2.11,1.89-2.11h.66c1.32,0,1.98.67,1.98,2.11v22.95h12.38c1.37,0,2.11.67,2.11,1.98v.18c0,1.3-.75,2.02-2.11,2.02h-14.49c-1.45,0-2.42-.99-2.42-2.56Z"/>
    <path class="cls-1" d="m352.67,106.26h.57v-.45c0-3.28-1.85-5.07-5.24-5.07-3.21,0-5.11,1.71-6.08,3.68,0,.05-2.69,0-2.69-2.16,0-.81.48-1.8,1.45-2.69,1.45-1.35,4.01-2.47,7.62-2.47,5.99,0,9.25,3.14,9.25,8.62v13.25c0,.22-.79.49-1.59.49-1.19,0-2.16-.54-2.51-1.98-.09-.4-.18-.9-.18-1.48-1.63,2.34-4.4,3.73-7.62,3.73-4.54,0-7.22-2.47-7.22-6.15,0-4.99,4.67-7.14,14.23-7.32Zm.57,2.78l-1.19.04c-6.17.22-9.34,1.39-9.34,4.31,0,1.93,1.5,3.14,4.01,3.14,3.79,0,6.52-2.43,6.52-5.84v-1.66Z"/>
    <path class="cls-1" d="m364.29,112.68v-11.41h-1.54c-1.37,0-1.89-.58-1.89-1.66v-.31c0-1.08.53-1.66,1.89-1.66h1.54v-3.32c0-1.53.75-2.11,1.94-2.11h.44c1.15,0,1.89.45,1.89,2.11v3.32h4.8c1.37,0,1.85.54,1.85,1.62v.32c0,1.12-.53,1.71-1.89,1.71h-4.8v10.91c0,2.7.75,4,2.82,4,1.37,0,2.33-.63,3-1.53.13-.13,1.23.49,1.23,1.89,0,.72-.31,1.39-.92,1.98-.84.76-2.2,1.3-4.01,1.3-4.36,0-6.34-2.47-6.34-7.14Z"/>
    <path class="cls-1" d="m388.61,97.1c6.12,0,10.18,4.4,10.18,10.87v.36c0,.94-.31,1.3-1.32,1.3h-15.64c0,.27.04.54.09.81.62,3.55,3.39,5.88,7.14,5.88s5.55-1.66,6.65-3.59c.09-.09,2.29.31,2.29,2.2,0,.94-.79,2.16-2.34,3.14-1.54.99-3.79,1.75-6.69,1.75-6.7,0-11.19-4.54-11.19-11.27s4.58-11.45,10.83-11.45Zm-.04,3.37c-3.48,0-6.17,2.56-6.69,6.15h12.69c-.22-3.73-2.47-6.15-5.99-6.15Z"/>
    <path class="cls-1" d="m416,99.97c0,1.71-1.23,2.38-1.32,2.29-.66-.54-1.5-.94-2.69-.94-3.44,0-4.8,3.41-4.8,8.4v7.59c0,1.62-.84,2.11-1.94,2.11h-.48c-1.15,0-1.94-.49-1.94-2.11v-19.4c0-.14.7-.49,1.59-.49,1.01,0,2.11.45,2.55,2.16.09.45.18.99.18,1.62.92-2.65,2.69-4.09,5.37-4.09,2.2,0,3.48,1.08,3.48,2.87Z"/>
  </g>
  <g>
    <path class="cls-1" d="m47.91,35.35l9.21-.97c.09-.28.19-.6.19-.97,0-1.06-.57-1.53-1.99-1.39l-9.21.92c-.05.28-.1.55-.1.83,0,1.11.62,1.71,1.9,1.57Z"/>
    <path class="cls-1" d="m55.74,35.95l-9.21.92c-.05.28-.1.55-.1.83,0,1.11.62,1.71,1.9,1.57l9.21-.97c.1-.28.19-.6.19-.97,0-1.06-.57-1.53-1.99-1.39Z"/>
    <path class="cls-1" d="m53.32,45.15c0,.6.14,1.29.47,1.9.62.32,1.38.51,2.04.51,1.66,0,2.56-.97,2.56-2.54,0-.55-.14-1.25-.43-1.9-.62-.28-1.38-.46-2.04-.46-1.52,0-2.61.88-2.61,2.5Z"/>
    <path class="cls-1" d="m46.15,45.15c0,.6.14,1.29.48,1.9.62.32,1.38.51,2.04.51,1.66,0,2.56-.97,2.56-2.54,0-.55-.14-1.25-.43-1.9-.62-.28-1.38-.46-2.04-.46-1.52,0-2.61.88-2.61,2.5Z"/>
    <path class="cls-1" d="m91.41,60.96c-2.18,0-3.89-.83-7.98-3.74-4.18-3.01-6.41-3.93-9.26-3.93-3.32,0-5.94,1.16-7.36,3.1-.71.97-1,1.99-1,2.82,0,1.62,1.14,2.5,2.09,2.5.28,0,.66-.09.9-.18.33-2.03,2.37-3.79,5.65-3.79,2.47,0,3.94.92,6.79,2.87,2.56,1.76,3.23,2.17,4.04,2.45-.81.18-1.28.37-5.18,2.17-4.18,1.94-8.07,2.77-13.77,2.77h-2.47s-.05.01-.07.01c-.02,0-.05-.01-.07-.01-3.09,0-5.22-.14-6.93-.46,2.09-1.94,3.75-4.58,3.75-8.18,0-5.46-3.8-9.34-8.45-9.34s-8.55,3.93-8.55,9.29c0,3.05,1.23,5.92,3.61,8.28-1.66.28-3.61.42-5.79.42-.04,0-.07.01-.1.02-.04,0-.08-.02-.13-.02h-.52c-3.32,0-4.42-1.66-4.42-6.8v-18.95c-.28-.14-.9-.28-1.42-.28-1.52,0-2.8.69-2.75,3.47l.19,17.01c.09,7.21,2.33,10.17,7.79,10.17h1.14s.09-.01.14-.02c.03,0,.07.02.1.02,4.18,0,7.98-.79,10.78-1.85,3.28,1.34,7.41,1.85,11.59,1.85.02,0,.04-.01.07-.01.02,0,.05.01.07.01h1.57c7.12,0,11.11-1.34,16.1-4.11,3.61-2.03,6.98-3.47,9.36-3.47.57,0,.95.05,1.61.09.67-.55,1.19-1.62,1.19-2.73,0-.55-.14-1.11-.28-1.53-.24,0-1.23.09-1.99.09Zm-39.32,5.04c-2.99-1.34-4.99-3.42-4.99-6.29s2.37-5.32,4.99-5.32,4.89,2.4,4.89,5.22-2.23,5.13-4.89,6.38Z"/>
    <path class="cls-1" d="m118.42,46.22c0,2.54.24,10.77.24,13.08,0,7.03-2.04,8.69-10.49,8.69h-10.12c.24,3.37,1.57,4.62,5.13,4.62h5.51c10.21,0,14.01-3.37,14.01-12.48v-18.03c-.47-.14-.85-.23-1.47-.23-2.52,0-2.8,1.53-2.8,4.35Z"/>
    <path class="cls-1" d="m112.2,63.55c1.19,0,1.9-.79,1.9-1.8,0-.65-.24-1.34-1-2.5l-7.5-11.65c-1.04-1.62-1.85-2.13-2.8-2.13-1.33,0-2.37,1.06-2.42,2.59l10.64,15.3c.19.05.66.18,1.19.18Z"/>
    <path class="cls-1" d="m167.09,55.18c1.66,0,2.56-.97,2.56-2.54,0-.55-.14-1.25-.43-1.9-.62-.28-1.38-.46-2.04-.46-1.52,0-2.61.88-2.61,2.5,0,.6.14,1.29.47,1.9.62.32,1.38.51,2.04.51Z"/>
    <path class="cls-1" d="m159.92,55.18c1.66,0,2.56-.97,2.56-2.54,0-.55-.14-1.25-.43-1.9-.62-.28-1.38-.46-2.04-.46-1.52,0-2.61.88-2.61,2.5,0,.6.14,1.29.47,1.9.62.32,1.38.51,2.04.51Z"/>
    <path class="cls-1" d="m182.9,55.18c1.57,0,2.37-.88,2.37-2.36,0-.51-.14-1.16-.38-1.76-.57-.28-1.28-.46-1.9-.46-1.42,0-2.42.83-2.42,2.36,0,.55.1,1.2.43,1.76.57.28,1.28.46,1.9.46Z"/>
    <path class="cls-1" d="m187.7,52.92c0,.55.09,1.2.43,1.76.57.28,1.28.46,1.9.46,1.57,0,2.37-.88,2.37-2.36,0-.51-.14-1.16-.38-1.76-.57-.28-1.28-.46-1.9-.46-1.42,0-2.42.83-2.42,2.36Z"/>
    <path class="cls-1" d="m186.51,49.27c1.52,0,2.33-.88,2.33-2.31,0-.51-.14-1.16-.38-1.71-.57-.28-1.28-.42-1.85-.42-1.42,0-2.42.79-2.42,2.27,0,.55.14,1.16.48,1.71.52.32,1.23.46,1.85.46Z"/>
    <path class="cls-1" d="m195.68,56.34c0,.46.14.97.76,2.27.76,1.62,1.23,3.14,1.23,5.27,0,2.77-1.28,4.11-3.42,4.11-2.56,0-3.94-1.53-3.94-5.78v-3.33c-.24-.18-.95-.42-1.66-.42-1.23,0-2.14.74-2.14,2.08,0,1.06.05,2.13.05,3.33,0,3.14-1.19,4.11-3.7,4.11-2.75,0-4.04-1.48-4.04-5.22v-2.96c-.24-.18-.85-.42-1.52-.42-1.33,0-2.28.74-2.28,2.08,0,1.06.05,2.13.05,3.1,0,2.31-1.04,3.42-4.13,3.42h-.66c-3.61,0-4.89-1.16-4.89-5.55v-3.1c-.33-.23-.95-.42-1.57-.42-1.66,0-2.52.79-2.52,2.03,0,.6.05,1.62.05,2.87,0,2.87-1.19,4.16-4.08,4.16h-2.28c-2.28,0-3.51-1.2-4.37-4.99-.33-1.53-.71-3.05-1.04-4.58-2.61,0-3.94,1.39-3.94,2.63,0,.83.38,1.9,1.09,3.7.76,1.9,1.33,3.24,1.52,4.3-.52,5.78-3.37,9.11-7.5,9.11-2.09,0-3.99-.74-4.8-1.76-1.14.42-1.85,1.29-1.85,2.45,0,2.13,2.14,3.93,6.22,3.93,6.6,0,10.54-4.16,11.21-11.42.95.88,2.14,1.25,3.47,1.25h1.95c3.18,0,5.56-.83,6.98-3.14.19.37.43.69.71,1.02,1.33,1.53,2.9,2.13,5.41,2.13h.9s0,0,0,0c3.8,0,5.84-1.29,6.55-3.24.62,1.99,2.66,3.24,5.37,3.24,3.09,0,5.22-1.2,6.17-3.47.66,2.08,2.61,3.47,5.46,3.47,4.32,0,6.98-3.1,6.98-8.74,0-3.47-1-7.07-2.56-9.48-1.9,0-3.23.83-3.23,1.94Z"/>
    <path class="cls-1" d="m208.12,45.43l.24,27.14c.33.14.9.28,1.52.28,1.76,0,2.52-.97,2.52-4.16v-26.58c-.48-.14-.95-.23-1.57-.23-1.9,0-2.71.92-2.71,3.56Z"/>
    <path class="cls-1" d="m227.3,55.23c-4.99,0-8.5,3.88-8.5,8.78s3.85,8.37,9.12,8.37c2.33,0,4.04-.55,5.27-1.57-.66,4.62-3.89,7.35-8.64,7.35-2.09,0-3.99-.74-4.8-1.76-1.14.42-1.85,1.29-1.85,2.45,0,2.13,2.14,3.93,6.93,3.93,6.89,0,11.97-4.99,11.97-13.82s-3.75-13.73-9.5-13.73Zm.66,12.9c-3.61,0-5.84-1.48-5.84-4.07,0-2.45,2.04-4.44,4.99-4.44,3.47,0,5.79,2.82,6.03,7.44-1.19.6-3.13,1.06-5.18,1.06Z"/>
    <path class="cls-1" d="m262.82,59.53c1.66,0,2.56-.97,2.56-2.54,0-.55-.14-1.25-.43-1.9-.62-.28-1.38-.46-2.04-.46-1.52,0-2.61.88-2.61,2.5,0,.6.14,1.29.47,1.9.62.32,1.38.51,2.04.51Z"/>
    <path class="cls-1" d="m269.56,61.29c0,.6.24,1.39.9,2.87,1.14,2.5,1.71,4.81,1.71,6.84,0,4.39-2.61,7.58-8.88,7.58s-9.4-2.64-9.4-7.86c0-3.24.95-5.55,2.09-6.98-.24-.28-.81-.51-1.33-.51-2.04,0-4.84,3-4.8,8.09.05,7.91,4.89,11.88,13.39,11.88s12.96-4.9,12.96-12.16v-.05c0-4.9-1.14-9.01-3.09-12.53-2.23.14-3.56,1.11-3.56,2.82Z"/>
    <path class="cls-1" d="m301.33,46.22c0,2.54.24,10.77.24,13.08,0,7.03-2.04,8.69-10.49,8.69h-10.12c.24,3.37,1.57,4.62,5.13,4.62h5.51c10.21,0,14.01-3.37,14.01-12.48v-18.03c-.47-.14-.85-.23-1.47-.23-2.52,0-2.8,1.53-2.8,4.35Z"/>
    <path class="cls-1" d="m285.71,45.48c-1.33,0-2.37,1.06-2.42,2.59l10.64,15.3c.19.05.66.18,1.19.18,1.19,0,1.9-.79,1.9-1.8,0-.65-.24-1.34-1-2.5l-7.5-11.65c-1.04-1.62-1.85-2.13-2.8-2.13Z"/>
    <path class="cls-1" d="m281.48,45.06c-.14-.18-.24-.46-.24-.79,0-.79.66-1.39,1.76-1.39,1.42,0,3.8.55,5.7.55,2.47,0,3.42-1.2,3.42-2.27,0-.83-.57-1.29-.95-1.29-.38.51-1.05.88-2.42.88-1.95,0-3.94-.65-5.79-.65-2.33,0-3.89,1.34-3.89,3.24,0,1.34.85,2.03,1.66,2.03.33,0,.67-.14.76-.32Z"/>
    <path class="cls-1" d="m312.25,45.43l.24,27.14c.33.14.9.28,1.52.28,1.76,0,2.52-.97,2.52-4.16v-26.58c-.48-.14-.95-.23-1.57-.23-1.9,0-2.71.92-2.71,3.56Z"/>
    <path class="cls-1" d="m360.68,50.79c1.66,0,2.56-.97,2.56-2.54,0-.55-.14-1.25-.43-1.9-.62-.28-1.38-.46-2.04-.46-1.52,0-2.61.88-2.61,2.5,0,.6.14,1.29.48,1.9.62.32,1.38.51,2.04.51Z"/>
    <path class="cls-1" d="m378.11,60.96c-2.19,0-3.89-.83-7.98-3.74-4.18-3.01-6.41-3.93-9.26-3.93-3.32,0-5.94,1.16-7.36,3.1-.71.97-1,1.99-1,2.82,0,1.62,1.14,2.5,2.09,2.5.28,0,.66-.09.9-.18.33-2.03,2.37-3.79,5.65-3.79,2.47,0,3.94.92,6.79,2.87,2.56,1.76,3.23,2.17,4.04,2.45-.81.18-1.28.37-5.18,2.17-4.18,1.94-8.07,2.77-13.77,2.77h-3.27c-2.28,0-3.51-1.2-4.37-4.99-.33-1.53-.71-3.05-1.04-4.58-2.61,0-3.94,1.39-3.94,2.63,0,.83.38,1.9,1.09,3.7.76,1.9,1.33,3.24,1.52,4.3-.52,5.78-3.37,9.11-7.5,9.11-2.09,0-3.99-.74-4.8-1.76-1.14.42-1.85,1.29-1.85,2.45,0,2.13,2.14,3.93,6.22,3.93,6.6,0,10.54-4.16,11.21-11.42.95.88,2.14,1.25,3.47,1.25h2.37c7.12,0,11.11-1.34,16.1-4.11,3.61-2.03,6.98-3.47,9.36-3.47.57,0,.95.05,1.61.09.66-.55,1.19-1.62,1.19-2.73,0-.55-.14-1.11-.28-1.53-.24,0-1.23.09-1.99.09Z"/>
    <path class="cls-1" d="m392.97,49.27c-1.38.23-2.33,1.2-2.33,2.59s.9,2.08,2.47,3.14c4.89,3.33,8.17,5.59,8.17,9.01,0,2.54-1.85,4.07-6.65,4.07s-6.32-1.53-6.32-3.65c0-.55.09-1.2.24-1.62-.1-.14-.62-.23-1-.23-1.33,0-2.8,1.29-2.8,3.74,0,3.61,3.13,6.38,9.59,6.38,7.27,0,10.73-3.47,10.73-8.46s-3.37-9.75-12.11-14.98Z"/>
    <path class="cls-1" d="m414.43,41.87c-1.9,0-2.71.92-2.71,3.56l.24,27.14c.33.14.9.28,1.52.28,1.76,0,2.52-.97,2.52-4.16v-26.58c-.48-.14-.95-.23-1.57-.23Z"/>
  </g>
</svg>