<?xml version="1.0" encoding="utf-8"?>
<!-- Generator: Adobe Illustrator 27.5.0, SVG Export Plug-In . SVG Version: 6.00 Build 0)  -->
<svg version="1.1" id="Layer_2_00000001633612869725174250000001112281026914759046_"
	 xmlns="http://www.w3.org/2000/svg" xmlns:xlink="http://www.w3.org/1999/xlink" x="0px" y="0px" viewBox="0 0 38 14"
	 style="enable-background:new 0 0 38 14;" xml:space="preserve">
<style type="text/css">
	.st0{fill:#1D1546;}
</style>
<g>
	<defs>
		<rect id="SVGID_1_" width="38" height="14"/>
	</defs>
	<clipPath id="SVGID_00000040558402722697468780000006300394471763673486_">
		<use xlink:href="#SVGID_1_"  style="overflow:visible;"/>
	</clipPath>
	<g style="clip-path:url(#SVGID_00000040558402722697468780000006300394471763673486_);enable-background:new    ;">
		
			<image style="overflow:visible;" width="880" height="660" xlink:href="98C9133EC0EE949F.jpeg"  transform="matrix(4.662552e-02 0 0 4.662552e-02 0 -8.3864)">
		</image>
	</g>
</g>
<g>
	<path class="st0" d="M4.6,9.1h1.5c0,0.4,0.4,0.7,1.1,0.7c0.7,0,1.1-0.3,1.1-0.7c0-0.5-0.5-0.5-1.2-0.6C6.1,8.4,4.8,8.2,4.8,6.8
		c0-1.2,0.9-2,2.4-2s2.4,0.8,2.4,1.9H8.1C8.1,6.2,7.7,6,7.2,6C6.5,6,6.2,6.3,6.2,6.6c0,0.5,0.6,0.5,1.2,0.6C8.2,7.4,9.7,7.5,9.7,9
		c0,1.2-1,2-2.5,2S4.7,10.2,4.6,9.1L4.6,9.1z"/>
	<path class="st0" d="M10.4,7.8c0-2,1.2-3,3-3s3,1,3,3v3.1h-1.4V7.8c0-1.1-0.6-1.7-1.5-1.7c-0.9,0-1.5,0.6-1.5,1.7v3.1h-1.4
		C10.4,10.9,10.4,7.8,10.4,7.8z"/>
	<path class="st0" d="M17.2,7.8V3h1.4v2.8c0.4-0.7,1.1-1,2-1c1.5,0,3,1,3,3.1c0,1.9-1.3,3.2-3.2,3.2S17.2,9.8,17.2,7.8L17.2,7.8z
		 M22.2,7.9c0-1.1-0.7-1.8-1.8-1.8s-1.8,0.8-1.8,1.8s0.7,1.8,1.8,1.8S22.2,9,22.2,7.9z"/>
	<path class="st0" d="M24.6,3H26v7.9h-1.4C24.6,10.9,24.6,3,24.6,3z"/>
	<path class="st0" d="M26.9,7.9c0-1.9,1.3-3.2,3.2-3.2s3.2,1.3,3.2,3.2v3H32V9.7c-0.4,0.9-1.2,1.3-2.1,1.3C28.5,11,27,10,26.9,7.9
		L26.9,7.9z M31.9,7.9c0-1.1-0.7-1.8-1.8-1.8s-1.8,0.8-1.8,1.8s0.7,1.8,1.8,1.8S31.9,8.9,31.9,7.9z"/>
</g>
</svg>
