<?xml version="1.0" encoding="UTF-8"?>
<svg id="Layer_1" data-name="Layer 1" xmlns="http://www.w3.org/2000/svg" xmlns:xlink="http://www.w3.org/1999/xlink" viewBox="0 0 38 14">
  <defs>
    <style>
      .cls-1 {
        fill: url(#linear-gradient);
      }

      .cls-2 {
        fill: #16072d;
      }

      .cls-3 {
        fill: #1d1546;
      }
    </style>
    <linearGradient id="linear-gradient" x1="5.94" y1="18.55" x2="32.06" y2="-4.55" gradientUnits="userSpaceOnUse">
      <stop offset="0" stop-color="#ff89b7"/>
      <stop offset=".26" stop-color="#cf87d1"/>
      <stop offset=".55" stop-color="#9a8fdd"/>
      <stop offset="1" stop-color="#40f5a4"/>
    </linearGradient>
  </defs>
  <rect class="cls-1" width="38" height="14" rx="3.5" ry="3.5"/>
  <g>
    <g>
      <path class="cls-3" d="m11.38,8.81h1.25c.01.34.31.57.91.57.63,0,.9-.26.9-.57,0-.39-.46-.45-1.01-.52-.79-.1-1.95-.24-1.95-1.5,0-1.05.8-1.74,2.04-1.74s2.03.71,2.06,1.61h-1.23c-.03-.31-.32-.53-.81-.53-.54,0-.81.26-.81.56,0,.39.47.46,1.02.53.69.09,1.94.23,1.94,1.51,0,1.04-.84,1.73-2.15,1.73s-2.13-.7-2.16-1.65Z"/>
      <path class="cls-3" d="m16.31,7.66c0-1.71,1.02-2.6,2.54-2.6s2.54.87,2.54,2.6v2.67h-1.24v-2.67c0-.98-.52-1.44-1.3-1.44s-1.3.47-1.3,1.44v2.67h-1.24v-2.67Z"/>
      <path class="cls-3" d="m22.19,7.72V3.54h1.24v2.4c.36-.57.98-.88,1.71-.88,1.25,0,2.56.89,2.56,2.65,0,1.63-1.14,2.75-2.77,2.75s-2.73-1.08-2.73-2.74Zm4.26.04c0-.9-.61-1.55-1.52-1.55s-1.51.64-1.51,1.55.6,1.55,1.51,1.55,1.52-.64,1.52-1.55Z"/>
      <path class="cls-3" d="m28.48,3.54h1.24v6.79h-1.24V3.54Z"/>
      <path class="cls-3" d="m30.49,7.81c0-1.63,1.14-2.75,2.77-2.75s2.73,1.09,2.73,2.74v2.53h-1.13v-1.01c-.31.76-1.01,1.14-1.82,1.14-1.25,0-2.56-.89-2.56-2.65Zm4.27-.05c0-.9-.6-1.55-1.51-1.55s-1.52.64-1.52,1.55.61,1.55,1.52,1.55,1.51-.64,1.51-1.55Z"/>
    </g>
    <g>
      <path class="cls-2" d="m9.78,5.69v3.68l-2.1-.46v-3.4c0-.23-.1-.44-.28-.58-.18-.14-.41-.19-.63-.13l-3.28.83v-1.39l3.34-.84c.71-.18,1.46-.02,2.04.43.58.45.91,1.14.91,1.88Z"/>
      <path class="cls-2" d="m7.69,8.91v1.78l-3.93-.86c-1.02-.22-1.76-1.14-1.76-2.18v-1.65l1.48-.37v1.62c0,.44.31.82.74.92l3.46.75Z"/>
    </g>
  </g>
</svg>