<?xml version="1.0" encoding="UTF-8"?>
<svg id="Layer_1" data-name="Layer 1" xmlns="http://www.w3.org/2000/svg" xmlns:xlink="http://www.w3.org/1999/xlink" viewBox="0 0 38 14">
  <defs>
    <style>
      .cls-1 {
        fill: url(#linear-gradient);
      }

      .cls-2 {
        fill: #1d1546;
      }
    </style>
    <linearGradient id="linear-gradient" x1="5.94" y1="18.55" x2="32.06" y2="-4.55" gradientUnits="userSpaceOnUse">
      <stop offset="0" stop-color="#ff89b7"/>
      <stop offset=".26" stop-color="#cf87d1"/>
      <stop offset=".55" stop-color="#9a8fdd"/>
      <stop offset="1" stop-color="#40f5a4"/>
    </linearGradient>
  </defs>
  <rect class="cls-1" width="38" height="14" rx="3.5" ry="3.5"/>
  <g>
    <path class="cls-2" d="m3,9.42h1.67c.01.46.42.77,1.23.77.85,0,1.21-.35,1.21-.77,0-.53-.61-.6-1.35-.7-1.06-.14-2.62-.32-2.62-2.01,0-1.41,1.07-2.33,2.73-2.33s2.72.95,2.76,2.16h-1.64c-.04-.42-.43-.71-1.09-.71-.72,0-1.09.35-1.09.75,0,.53.63.61,1.37.71.92.13,2.61.31,2.61,2.02,0,1.39-1.13,2.31-2.88,2.31s-2.86-.93-2.9-2.22Z"/>
    <path class="cls-2" d="m9.6,7.88c0-2.3,1.37-3.48,3.4-3.48s3.4,1.17,3.4,3.48v3.58h-1.66v-3.58c0-1.31-.7-1.94-1.74-1.94s-1.74.63-1.74,1.94v3.58h-1.66v-3.58Z"/>
    <path class="cls-2" d="m17.49,7.96V2.36h1.66v3.22c.49-.77,1.31-1.18,2.3-1.18,1.67,0,3.43,1.2,3.43,3.55,0,2.19-1.53,3.69-3.72,3.69s-3.66-1.45-3.66-3.68Zm5.71.06c0-1.21-.82-2.08-2.03-2.08s-2.02.86-2.02,2.08.81,2.08,2.02,2.08,2.03-.86,2.03-2.08Z"/>
    <path class="cls-2" d="m25.91,2.36h1.66v9.1h-1.66V2.36Z"/>
    <path class="cls-2" d="m28.62,8.09c0-2.19,1.53-3.69,3.72-3.69s3.66,1.46,3.66,3.68v3.39h-1.52v-1.35c-.42,1.02-1.35,1.53-2.44,1.53-1.67,0-3.43-1.2-3.43-3.55Zm5.73-.07c0-1.21-.81-2.08-2.02-2.08s-2.03.86-2.03,2.08.82,2.08,2.03,2.08,2.02-.86,2.02-2.08Z"/>
  </g>
</svg>