<?xml version="1.0" encoding="UTF-8"?>
<svg id="Layer_1" data-name="Layer 1" xmlns="http://www.w3.org/2000/svg" xmlns:xlink="http://www.w3.org/1999/xlink" viewBox="0 0 38 14">
  <defs>
    <style>
      .cls-1 {
        fill: url(#linear-gradient);
      }
    </style>
    <linearGradient id="linear-gradient" x1="5.94" y1="18.55" x2="32.06" y2="-4.55" gradientUnits="userSpaceOnUse">
      <stop offset="0" stop-color="#ff89b7"/>
      <stop offset=".26" stop-color="#cf87d1"/>
      <stop offset=".55" stop-color="#9a8fdd"/>
      <stop offset="1" stop-color="#40f5a4"/>
    </linearGradient>
  </defs>
  <rect class="cls-1" width="38" height="14" rx="3.5" ry="3.5"/>
  <g>
    <path d="m11.28,10.64h-.39c-1.29,0-2.07-.65-2.33-1.59-.3.48-.93.94-2,.94-1.42,0-2.39-.88-2.39-2.14,0-1.45,1.22-2.91,4.14-3.03v-.61c0-.64.38-.88.78-.88.26,0,.49.06.59.13v4.26c0,1.09.38,1.48,1.31,1.48h.29c.19,0,.29.26.29.72s-.1.72-.29.72Zm-2.96-4.64c-2.03.01-2.93.8-2.93,1.7,0,.67.51,1.13,1.27,1.13.83,0,1.39-.46,1.71-1.04l-.06-1.78Z"/>
    <path d="m11.28,9.19h.16c.76,0,1.22-.32,1.22-1.55,0-2.26-.07-4.15-.07-5.52,0-.83.28-1.12.86-1.12.19,0,.3.03.45.07v6.38c0,1.38.41,1.74,1.16,1.74h.22c.19,0,.29.29.29.71,0,.46-.1.74-.29.74h-.22c-.69,0-1.35-.36-1.64-.94-.36.62-.94.94-1.88.94h-.25c-.19,0-.29-.27-.29-.74,0-.42.12-.71.29-.71Z"/>
    <path d="m20.18,9.9c0,.46-.1.74-.29.74h-.28c-.77,0-1.25-.19-1.65-.67-.08-.1-.16-.2-.22-.32-.43.72-1.16.99-2.13.99h-.35c-.19,0-.29-.27-.29-.74,0-.42.12-.71.29-.71h.45c.88,0,1.25-.41,1.25-1.3,0-.39-.01-.71-.01-.9,0-.39.26-.64.77-.64.19,0,.38.06.48.13v.97c0,1.38.39,1.74,1.49,1.74h.2c.19,0,.29.29.29.71Zm-3.97,1.71c.09.2.13.42.13.59,0,.49-.28.8-.78.8-.2,0-.43-.06-.62-.16-.1-.19-.14-.41-.14-.59,0-.51.33-.78.8-.78.2,0,.43.06.62.15Z"/>
    <path d="m24.81,9.9c0,.46-.1.74-.29.74h-.28c-.77,0-1.25-.19-1.65-.67-.08-.1-.16-.2-.22-.32-.43.72-1.16.99-2.13.99h-.35c-.19,0-.29-.27-.29-.74,0-.42.12-.71.29-.71h.45c.88,0,1.25-.41,1.25-1.3,0-1.04-.03-1.99-.03-2.59,0-.54.25-.8.78-.8.19,0,.36.04.48.12v2.84c0,1.38.39,1.74,1.49,1.74h.2c.19,0,.29.29.29.71Zm-5.2-6.38c-.1-.19-.15-.41-.15-.59,0-.51.34-.78.8-.78.2,0,.43.06.62.15.09.2.13.42.13.59,0,.49-.27.8-.78.8-.2,0-.43-.06-.62-.16Z"/>
    <path d="m33.84,7.9c0,1.77-.81,2.74-2.13,2.74-.87,0-1.46-.43-1.67-1.09-.29.71-.94,1.09-1.88,1.09-.83,0-1.45-.39-1.64-1.01-.22.61-.84,1.01-2,1.01-.2,0-.29-.27-.29-.72s.1-.72.29-.72c.94,0,1.26-.35,1.26-1.07,0-.3-.01-.64-.01-.97,0-.42.29-.65.7-.65.2,0,.39.07.46.13v.93c0,1.17.39,1.64,1.23,1.64.77,0,1.13-.3,1.13-1.29,0-.38-.02-.71-.02-1.04,0-.42.28-.65.65-.65.22,0,.43.07.51.13v1.04c0,1.33.42,1.81,1.2,1.81.65,0,1.04-.42,1.04-1.29,0-.67-.14-1.14-.38-1.65-.19-.41-.23-.57-.23-.71,0-.35.4-.61.98-.61.48.75.78,1.88.78,2.97Z"/>
  </g>
</svg>