<?xml version="1.0" encoding="UTF-8"?>
<svg id="Layer_1" data-name="Layer 1" xmlns="http://www.w3.org/2000/svg" xmlns:xlink="http://www.w3.org/1999/xlink" viewBox="0 0 38 14">
  <defs>
    <style>
      .cls-1 {
        fill: url(#linear-gradient);
      }

      .cls-2 {
        fill: #1d1546;
      }
    </style>
    <linearGradient id="linear-gradient" x1="5.94" y1="18.55" x2="32.06" y2="-4.55" gradientUnits="userSpaceOnUse">
      <stop offset="0" stop-color="#ff89b7"/>
      <stop offset=".26" stop-color="#cf87d1"/>
      <stop offset=".55" stop-color="#9a8fdd"/>
      <stop offset="1" stop-color="#40f5a4"/>
    </linearGradient>
  </defs>
  <rect class="cls-1" width="38" height="14" rx="3.5" ry="3.5"/>
  <g>
    <path class="cls-2" d="m2.12,10.45c0-.51.55-.82.61-.79.47.52,1.26.93,2.27.93.78,0,1.21-.27,1.21-.71,0-.54-.55-.63-1.47-.83-.95-.21-2.43-.51-2.43-2.06,0-1.34,1.09-2.23,2.88-2.23,1.4,0,2.26.4,2.61.93.11.17.17.35.17.55,0,.52-.61.87-.64.83-.47-.54-1.23-.93-2.02-.93s-1.19.28-1.19.72c0,.49.55.59,1.47.8.99.21,2.54.52,2.54,2.07,0,1.38-1.1,2.21-3.03,2.21-1.1,0-1.88-.21-2.38-.52-.4-.27-.61-.61-.61-.99Z"/>
    <path class="cls-2" d="m16.07,7.6v3.32c0,.72-.37.95-.88.95h-.21c-.54,0-.9-.21-.9-.95v-3c0-.9-.47-1.47-1.27-1.47-.69,0-1.24.35-1.52.89v3.58c0,.72-.37.95-.88.95h-.21c-.54,0-.9-.21-.9-.95v-5.84c0-.06.35-.23.75-.23.54,0,1.06.27,1.18,1.16.49-.73,1.23-1.24,2.27-1.24,1.81,0,2.57,1.27,2.57,2.84Z"/>
    <path class="cls-2" d="m19.43,11.18c-.07.51-.39.68-.82.68h-.21c-.52,0-.89-.21-.89-.95V2.23c0-.06.34-.23.75-.23.58,0,1.24.31,1.24,1.59v2.3c.48-.71,1.24-1.13,2.21-1.13,1.86,0,3.19,1.4,3.19,3.6s-1.31,3.64-3.22,3.64c-1.07,0-1.86-.55-2.21-1.23l-.04.41Zm1.81-4.82c-.85,0-1.45.44-1.75,1.13v1.34c.03.93.79,1.58,1.72,1.58,1.07,0,1.79-.82,1.79-2.02s-.72-2.03-1.76-2.03Z"/>
    <path class="cls-2" d="m26.08,10.91V2.23c0-.06.35-.23.75-.23.59,0,1.24.31,1.24,1.59v7.32c0,.72-.35.95-.87.95h-.2c-.54,0-.92-.21-.92-.95Z"/>
    <path class="cls-2" d="m33.7,7.7h.23c0-.07,0-.14-.01-.2-.03-.8-.52-1.24-1.4-1.24-.96,0-1.45.48-1.71,1,0,.03-1.28.11-1.28-.79,0-.31.14-.62.42-.9.47-.48,1.35-.8,2.69-.8,2.17,0,3.24,1,3.24,2.85v4.06c0,.1-.37.23-.75.23-.48,0-.86-.2-1.04-.66-.04-.13-.08-.28-.1-.47-.49.75-1.38,1.19-2.41,1.19-1.44,0-2.31-.79-2.31-1.96,0-1.55,1.51-2.26,4.43-2.3Zm.23,1h-.38c-1.57.06-2.41.35-2.41,1.13,0,.52.41.85,1.07.85,1,0,1.71-.61,1.72-1.5v-.48Z"/>
  </g>
</svg>