<?xml version="1.0" standalone="no"?>
<!DOCTYPE svg PUBLIC "-//W3C//DTD SVG 20010904//EN"
 "http://www.w3.org/TR/2001/REC-SVG-20010904/DTD/svg10.dtd">
<svg version="1.0" xmlns="http://www.w3.org/2000/svg"
 width="4096.000000pt" height="4096.000000pt" viewBox="0 0 4096.000000 4096.000000"
 preserveAspectRatio="xMidYMid meet">
<metadata>
Created by potrace 1.14, written by Peter Selinger 2001-2017
</metadata>
<g transform="translate(0.000000,4096.000000) scale(0.100000,-0.100000)"
fill="#000000" stroke="none">
<path d="M27928 39855 c-2 -2 -66 -6 -143 -10 -77 -3 -162 -8 -190 -9 -27 -2
-102 -7 -165 -11 -63 -4 -117 -8 -120 -10 -3 -2 -50 -6 -104 -10 -55 -4 -107
-8 -115 -10 -9 -1 -43 -6 -76 -9 -82 -9 -145 -17 -175 -21 -14 -2 -50 -7 -80
-10 -30 -3 -62 -8 -70 -10 -8 -2 -37 -6 -65 -10 -94 -11 -163 -21 -240 -35
-27 -5 -70 -12 -95 -15 -25 -4 -67 -11 -95 -16 -27 -6 -61 -12 -75 -15 -14 -2
-70 -13 -125 -24 -55 -11 -114 -22 -132 -25 -18 -3 -92 -19 -165 -36 -73 -16
-143 -32 -156 -35 -13 -3 -60 -14 -105 -25 -45 -11 -89 -22 -97 -24 -8 -2
-161 -40 -340 -85 -179 -45 -332 -83 -340 -85 -8 -2 -96 -25 -195 -50 -99 -25
-191 -48 -205 -51 -14 -3 -39 -9 -56 -15 -17 -5 -40 -11 -50 -13 -17 -4 -78
-19 -124 -30 -235 -60 -1186 -301 -1212 -307 -21 -5 -55 -13 -75 -18 -21 -5
-155 -39 -298 -75 -143 -37 -268 -69 -278 -71 -17 -4 -433 -109 -977 -246
-151 -39 -282 -71 -290 -73 -75 -18 -552 -139 -575 -146 -16 -5 -41 -11 -55
-14 -14 -3 -106 -26 -205 -51 -99 -25 -191 -48 -205 -51 -14 -3 -34 -8 -45
-11 -11 -4 -24 -8 -30 -9 -5 -1 -48 -12 -95 -24 -47 -12 -92 -23 -100 -25 -8
-2 -204 -51 -435 -110 -231 -58 -431 -108 -445 -111 -14 -3 -38 -9 -55 -14
-27 -8 -338 -87 -375 -95 -8 -2 -123 -31 -255 -65 -132 -33 -249 -63 -260 -65
-11 -2 -81 -19 -155 -38 -74 -20 -344 -88 -600 -152 -256 -64 -485 -122 -510
-130 -25 -8 -58 -16 -75 -19 -16 -3 -82 -18 -145 -35 -150 -39 -871 -222 -890
-226 -8 -2 -170 -42 -360 -90 -190 -48 -352 -88 -360 -90 -8 -2 -168 -42 -355
-90 -187 -47 -347 -88 -355 -90 -8 -2 -62 -15 -120 -30 -127 -32 -220 -55
-240 -60 -8 -1 -35 -8 -60 -15 -25 -7 -52 -14 -60 -15 -8 -2 -60 -16 -115 -30
-55 -15 -111 -29 -125 -31 -14 -3 -34 -8 -45 -11 -11 -4 -24 -8 -30 -9 -5 -1
-138 -34 -295 -74 -157 -39 -292 -73 -300 -75 -8 -2 -285 -72 -615 -155 -330
-84 -607 -154 -615 -155 -8 -2 -96 -25 -195 -50 -99 -26 -188 -48 -198 -50
-10 -2 -27 -7 -37 -10 -10 -3 -28 -8 -39 -10 -12 -2 -49 -11 -84 -20 -34 -9
-69 -18 -77 -20 -8 -2 -107 -27 -220 -55 -113 -28 -212 -53 -220 -55 -8 -2
-168 -42 -355 -90 -187 -47 -347 -88 -355 -90 -75 -18 -267 -66 -595 -150 -77
-20 -151 -39 -165 -41 -14 -3 -50 -12 -80 -20 -30 -8 -62 -16 -70 -19 -8 -2
-197 -49 -420 -104 -223 -56 -414 -105 -425 -110 -20 -8 -20 -18 -20 -3646 l0
-3639 -250 -63 c-138 -34 -259 -65 -270 -67 -11 -2 -47 -12 -80 -21 -33 -9
-71 -18 -85 -21 -14 -3 -68 -16 -120 -30 -96 -26 -202 -53 -230 -59 -8 -1
-116 -29 -240 -60 -124 -31 -232 -58 -240 -60 -8 -2 -78 -20 -155 -40 -77 -19
-149 -37 -160 -40 -11 -3 -66 -16 -123 -31 -57 -14 -111 -27 -120 -29 -9 -2
-159 -41 -332 -85 -173 -45 -323 -83 -333 -86 -9 -2 -27 -6 -40 -9 -12 -3
-166 -41 -342 -86 -176 -45 -327 -82 -335 -84 -18 -4 -959 -242 -1150 -291
-74 -19 -145 -37 -157 -40 -12 -2 -34 -9 -48 -14 -14 -5 -25 -8 -25 -5 0 2
-15 -1 -32 -6 -18 -6 -40 -12 -49 -14 -8 -2 -161 -40 -340 -85 -178 -45 -331
-83 -339 -85 -8 -2 -132 -33 -275 -70 -143 -36 -267 -68 -275 -70 -8 -2 -89
-22 -180 -45 -91 -23 -174 -43 -184 -45 -10 -3 -33 -9 -50 -14 -17 -6 -42 -12
-56 -15 -14 -3 -61 -14 -105 -26 -44 -11 -89 -23 -100 -25 -11 -3 -230 -58
-488 -122 l-467 -118 3 -4610 c2 -2535 7 -4639 10 -4675 3 -36 8 -105 11 -155
3 -49 8 -109 10 -132 3 -23 8 -77 11 -120 3 -43 7 -94 10 -113 2 -19 7 -69 11
-110 4 -41 8 -77 9 -80 1 -3 5 -36 9 -75 5 -38 10 -78 11 -87 2 -9 6 -43 10
-75 3 -32 8 -65 10 -73 2 -8 7 -37 10 -65 3 -27 7 -57 10 -65 2 -8 7 -37 10
-65 12 -82 12 -88 24 -150 16 -86 20 -106 27 -140 4 -16 8 -39 9 -50 1 -11 7
-45 13 -75 7 -30 14 -64 16 -75 12 -59 37 -179 52 -240 9 -39 17 -77 19 -85 6
-28 66 -264 95 -375 24 -89 61 -216 144 -490 2 -5 5 -17 9 -25 3 -8 24 -73 48
-145 72 -221 235 -657 299 -800 10 -22 29 -67 43 -100 90 -215 320 -694 432
-900 37 -68 219 -393 240 -427 5 -9 27 -45 48 -80 43 -72 36 -60 147 -238 46
-74 104 -163 127 -198 24 -35 43 -67 43 -72 0 -4 3 -10 8 -12 4 -2 27 -32 51
-68 50 -74 172 -250 183 -265 4 -5 74 -98 155 -205 81 -107 185 -242 232 -300
101 -125 299 -361 315 -375 6 -5 40 -44 76 -85 194 -223 599 -633 854 -865 35
-32 199 -178 222 -197 15 -13 32 -28 38 -33 31 -29 322 -269 401 -330 50 -38
95 -74 100 -78 6 -5 89 -67 185 -137 96 -71 186 -137 200 -148 57 -42 345
-235 485 -324 251 -158 458 -280 755 -441 217 -117 673 -338 820 -397 25 -10
70 -29 100 -43 75 -34 529 -215 555 -222 6 -1 23 -7 40 -14 201 -82 1041 -333
1260 -376 17 -3 35 -7 40 -9 34 -10 286 -66 355 -79 14 -3 45 -10 70 -16 25
-5 56 -12 70 -15 14 -2 88 -19 165 -36 153 -34 431 -95 510 -111 28 -6 77 -17
110 -25 74 -17 281 -62 315 -68 37 -7 209 -45 255 -56 44 -10 345 -76 385 -84
28 -5 154 -33 185 -41 11 -2 85 -18 165 -36 80 -17 154 -33 165 -35 11 -3 40
-9 65 -14 25 -5 97 -21 160 -35 63 -14 124 -27 135 -30 25 -5 215 -46 235 -50
72 -16 171 -38 250 -56 52 -11 104 -22 115 -25 11 -2 34 -7 50 -9 17 -3 57
-12 90 -20 62 -14 195 -44 230 -51 49 -10 304 -66 340 -75 22 -5 51 -12 65
-15 83 -16 132 -27 280 -59 91 -20 172 -38 180 -40 8 -2 112 -24 230 -50 118
-26 265 -57 325 -71 61 -13 184 -40 274 -59 90 -20 166 -37 170 -39 3 -2 28
-7 55 -10 27 -4 52 -9 56 -11 5 -3 113 -27 225 -50 11 -3 90 -20 175 -39 85
-19 166 -37 180 -40 39 -7 298 -63 370 -80 36 -8 81 -18 100 -21 19 -3 43 -8
52 -11 9 -3 25 -7 35 -9 69 -14 323 -69 393 -85 90 -21 388 -86 430 -94 43 -8
213 -46 255 -56 56 -13 415 -91 445 -96 14 -3 52 -11 85 -19 47 -11 286 -64
365 -80 8 -2 35 -8 60 -14 25 -5 56 -12 70 -15 14 -2 69 -14 124 -26 54 -12
106 -23 115 -25 36 -8 167 -37 181 -40 20 -5 209 -46 390 -85 326 -70 697
-151 730 -160 19 -5 50 -12 69 -15 19 -3 104 -21 189 -41 85 -19 169 -37 186
-40 17 -2 47 -9 66 -14 19 -5 46 -11 60 -14 52 -10 166 -35 180 -40 8 -3 29
-7 45 -10 25 -4 124 -24 200 -42 19 -5 83 -18 135 -30 14 -3 97 -21 185 -40
88 -20 171 -38 185 -40 13 -3 56 -12 95 -20 38 -9 122 -27 185 -41 63 -13 122
-26 130 -28 8 -2 69 -15 135 -30 66 -14 138 -30 160 -35 22 -5 114 -26 205
-45 91 -20 215 -47 275 -60 61 -13 121 -26 135 -29 14 -2 57 -11 95 -20 100
-24 146 -34 180 -40 17 -3 39 -8 50 -10 76 -18 173 -39 250 -56 50 -10 151
-32 225 -49 74 -16 146 -32 160 -35 14 -2 68 -14 120 -26 114 -25 277 -61 460
-100 74 -16 178 -38 230 -50 52 -12 104 -24 115 -26 35 -7 59 -12 105 -23 25
-5 56 -12 70 -15 67 -13 179 -38 210 -46 19 -5 51 -12 70 -15 19 -3 60 -12 90
-20 30 -7 71 -16 90 -19 19 -4 62 -12 95 -20 70 -16 339 -75 369 -80 12 -2 39
-9 61 -14 22 -6 56 -14 75 -17 19 -3 62 -12 95 -20 56 -13 176 -40 235 -51 14
-3 33 -7 42 -10 9 -3 27 -7 40 -9 13 -3 64 -14 113 -25 50 -11 101 -22 115
-24 14 -2 55 -11 91 -20 37 -8 78 -17 90 -20 107 -23 776 -168 1249 -272 19
-4 37 -8 40 -9 3 -1 23 -5 45 -9 22 -5 76 -17 120 -27 45 -10 92 -20 105 -23
14 -2 77 -16 140 -30 63 -15 124 -28 135 -31 91 -18 226 -48 255 -55 19 -5 51
-12 70 -15 19 -3 55 -11 80 -16 25 -6 65 -15 90 -20 25 -6 65 -15 90 -20 25
-6 63 -15 85 -20 22 -5 126 -27 230 -49 105 -23 238 -52 298 -65 59 -14 110
-25 112 -25 3 0 5 2097 5 4661 0 4434 1 4660 18 4655 18 -5 200 -45 242 -52
14 -3 43 -10 65 -16 22 -6 54 -12 70 -15 17 -3 89 -18 160 -34 72 -17 162 -36
200 -44 39 -8 111 -24 160 -35 50 -11 119 -27 155 -34 36 -8 130 -29 210 -46
80 -17 156 -34 170 -36 14 -3 54 -12 90 -20 36 -8 148 -33 250 -55 102 -22
192 -42 200 -44 39 -9 248 -54 270 -59 14 -2 88 -18 165 -35 77 -17 149 -33
160 -35 11 -3 40 -9 65 -15 25 -5 56 -12 70 -15 14 -3 34 -7 45 -10 11 -2 85
-18 165 -36 80 -17 163 -35 185 -40 32 -8 435 -96 527 -116 13 -3 41 -9 63
-13 22 -5 72 -16 110 -24 39 -8 167 -36 285 -62 247 -54 244 -54 410 -90 69
-15 133 -29 143 -31 9 -2 27 -6 40 -9 79 -17 221 -48 272 -60 33 -8 95 -21
137 -30 43 -8 115 -24 160 -34 46 -11 130 -29 188 -41 58 -12 112 -24 120 -26
35 -8 159 -35 380 -83 129 -28 253 -55 275 -61 22 -5 146 -32 275 -60 129 -28
253 -55 275 -60 35 -9 229 -50 297 -64 13 -3 75 -16 138 -31 63 -14 126 -28
140 -30 14 -3 138 -30 275 -60 138 -31 261 -58 275 -61 13 -3 56 -12 95 -20
38 -9 81 -18 95 -20 14 -3 33 -7 42 -10 10 -3 28 -7 40 -10 13 -2 32 -6 43 -8
11 -3 65 -14 120 -26 55 -12 116 -26 135 -30 175 -38 470 -103 490 -106 14 -3
45 -10 70 -15 25 -6 52 -12 60 -14 9 -2 69 -15 135 -30 134 -30 147 -33 190
-41 17 -3 57 -12 90 -19 53 -13 165 -38 590 -130 61 -13 182 -40 270 -59 88
-19 172 -37 188 -40 15 -2 35 -7 45 -10 9 -3 31 -8 47 -11 68 -13 83 -16 140
-30 93 -22 203 -45 212 -45 10 0 8 19328 -1 19640 -4 118 -8 242 -11 275 -2
33 -6 110 -10 170 -3 61 -8 126 -10 145 -2 19 -6 76 -9 125 -4 50 -8 101 -10
115 -3 14 -7 57 -10 95 -4 39 -8 81 -10 95 -3 14 -7 52 -10 85 -4 33 -8 71
-10 85 -3 14 -7 50 -11 80 -3 30 -19 145 -36 255 -17 110 -33 216 -36 235 -7
46 -96 499 -122 620 -22 99 -94 388 -131 525 -12 44 -23 88 -25 97 -5 24 -95
329 -102 348 -9 21 -9 21 -17 55 -4 17 -10 37 -13 45 -3 8 -34 98 -68 200 -62
184 -154 438 -180 495 -7 17 -16 41 -20 55 -4 14 -18 48 -31 77 -13 28 -24 54
-24 58 0 7 -166 395 -210 490 -143 310 -363 739 -497 968 -35 60 -63 110 -63
113 0 3 -13 25 -30 49 -16 24 -30 46 -30 48 0 2 -27 49 -61 103 -34 55 -69
112 -78 127 -9 15 -58 91 -108 169 -51 78 -93 145 -93 149 0 4 -3 9 -8 11 -4
2 -28 35 -54 73 -26 39 -65 96 -87 127 -22 32 -57 81 -78 110 -53 77 -266 360
-340 453 -35 44 -70 87 -76 95 -33 42 -192 236 -197 240 -3 3 -48 54 -100 115
-52 60 -102 117 -110 126 -8 8 -49 53 -90 99 -347 387 -875 890 -1285 1225
-61 49 -112 92 -115 95 -3 3 -25 21 -50 40 -25 19 -47 37 -50 40 -19 19 -374
285 -530 397 -148 105 -510 347 -613 409 -27 16 -59 36 -72 44 -18 12 -190
116 -265 160 -501 298 -1176 622 -1795 862 -126 49 -237 91 -245 93 -8 2 -60
20 -115 40 -137 50 -648 212 -725 231 -8 2 -49 13 -90 24 -169 47 -637 160
-720 175 -17 3 -62 12 -100 20 -38 8 -84 17 -102 20 -18 3 -40 8 -48 10 -8 2
-31 7 -50 10 -19 3 -60 10 -90 15 -131 24 -219 38 -270 45 -25 4 -85 12 -135
20 -49 8 -115 17 -145 20 -30 3 -62 8 -70 10 -8 2 -49 7 -90 10 -41 4 -84 9
-94 11 -11 2 -49 6 -85 9 -36 3 -84 7 -106 10 -117 12 -157 16 -230 20 -44 3
-114 7 -155 10 -41 3 -115 8 -165 11 -97 6 -1051 14 -1057 9z m-1613 -7650
c22 -3 90 -13 150 -21 61 -8 121 -16 135 -19 14 -3 41 -8 60 -11 19 -3 64 -13
100 -21 36 -8 73 -16 82 -18 39 -8 217 -58 283 -80 270 -89 547 -213 760 -340
44 -27 89 -53 100 -59 23 -13 232 -153 249 -167 6 -5 47 -37 91 -71 44 -35 85
-67 91 -73 6 -5 30 -26 54 -45 25 -19 108 -98 185 -175 271 -268 469 -526 658
-855 48 -84 159 -314 200 -415 72 -175 157 -432 173 -523 3 -14 7 -29 9 -32 2
-4 7 -22 10 -41 3 -19 10 -50 15 -69 5 -19 12 -48 15 -65 3 -16 8 -43 11 -60
3 -16 7 -39 9 -50 7 -52 17 -122 21 -145 2 -14 6 -54 10 -90 3 -36 8 -78 11
-95 7 -33 13 -18135 7 -18135 -2 0 -57 12 -122 26 -64 14 -128 28 -142 30 -14
3 -63 14 -110 24 -137 31 -453 100 -480 106 -23 4 -124 26 -275 59 -33 7 -125
27 -205 44 -80 17 -185 41 -233 52 -48 11 -100 23 -114 25 -33 6 -425 91 -478
104 -22 5 -105 23 -185 40 -137 30 -240 52 -390 86 -36 8 -75 16 -86 19 -12 2
-117 24 -234 50 -117 26 -222 48 -234 50 -21 5 -114 25 -221 50 -33 8 -76 17
-95 20 -19 3 -51 10 -70 15 -19 5 -46 11 -60 14 -14 2 -99 21 -190 41 -240 52
-442 96 -465 100 -11 3 -90 20 -175 39 -85 19 -166 37 -180 39 -14 3 -43 10
-65 15 -22 6 -53 13 -70 15 -16 3 -52 10 -80 17 -27 6 -59 13 -70 16 -34 6
-118 25 -160 34 -22 6 -166 37 -320 70 -154 33 -298 65 -320 70 -42 9 -126 28
-160 34 -54 11 -308 67 -370 81 -38 9 -79 19 -90 21 -11 2 -31 6 -45 9 -14 3
-34 7 -45 9 -11 3 -60 13 -110 25 -49 11 -101 22 -115 25 -14 2 -54 11 -90 20
-36 8 -78 17 -95 20 -16 3 -70 14 -120 26 -49 11 -103 23 -120 26 -16 3 -46 9
-65 14 -19 5 -49 11 -66 14 -16 3 -90 19 -163 36 -73 16 -143 32 -155 34 -23
5 -159 35 -301 66 -49 11 -101 22 -115 25 -14 2 -74 16 -135 29 -60 14 -121
27 -135 30 -14 2 -65 13 -115 25 -49 11 -101 22 -115 25 -14 3 -108 23 -210
46 -102 22 -228 49 -280 61 -52 11 -102 22 -110 24 -13 3 -45 10 -180 40 -8 2
-49 10 -91 19 -42 9 -83 18 -90 20 -8 3 -30 7 -50 10 -20 3 -42 8 -50 10 -8 3
-25 7 -39 10 -14 2 -55 11 -91 20 -37 8 -78 17 -90 20 -13 3 -44 9 -69 14 -25
6 -67 15 -95 21 -54 11 -66 14 -135 30 -25 5 -56 12 -70 15 -14 2 -77 16 -140
30 -63 15 -126 29 -140 31 -51 10 -605 131 -665 145 -48 12 -307 68 -350 76
-16 3 -66 14 -110 24 -72 17 -242 54 -304 66 -12 3 -51 11 -85 19 -33 8 -72
16 -86 19 -14 3 -56 12 -95 21 -121 27 -228 50 -285 61 -14 3 -45 10 -70 15
-25 6 -52 12 -60 14 -197 43 -382 83 -415 89 -11 2 -40 9 -65 15 -142 33 -178
41 -205 46 -38 6 -49 9 -165 35 -52 12 -104 23 -115 26 -25 5 -128 27 -135 29
-3 1 -23 5 -45 9 -22 5 -65 14 -95 22 -30 7 -71 16 -90 19 -19 3 -51 10 -70
15 -19 5 -46 11 -60 14 -14 2 -55 11 -93 20 -37 9 -80 18 -96 21 -16 3 -89 18
-163 35 -143 31 -234 51 -598 130 -129 28 -262 57 -295 65 -33 8 -71 16 -85
19 -30 5 -478 102 -535 115 -22 6 -71 17 -110 25 -38 8 -144 32 -234 51 -89
20 -173 39 -185 41 -11 2 -93 20 -181 39 -88 20 -173 38 -190 41 -16 3 -131
28 -255 56 -124 27 -268 58 -320 69 -118 25 -102 22 -245 54 -66 15 -129 29
-140 31 -31 6 -107 22 -132 28 -59 14 -113 26 -143 31 -19 3 -71 15 -115 26
-44 10 -89 21 -100 24 -104 22 -426 122 -540 167 -27 11 -68 27 -90 36 -53 21
-123 50 -160 67 -747 339 -1331 786 -1854 1420 -131 159 -334 455 -450 658
-56 98 -221 419 -221 431 0 2 -13 33 -29 68 -129 287 -255 693 -316 1023 -13
69 -27 154 -31 180 -2 17 -6 41 -8 55 -3 14 -8 54 -11 90 -4 36 -8 72 -10 80
-4 15 -8 67 -21 260 -4 69 -9 8351 -5 8680 l1 46 198 49 c108 27 202 50 207
51 6 2 48 12 95 24 47 12 92 23 100 25 8 2 186 47 395 100 209 53 387 98 395
100 24 5 617 154 719 181 51 13 103 26 115 28 11 3 129 32 261 66 132 34 247
63 255 65 8 1 35 8 60 15 25 7 52 13 60 15 8 2 35 8 60 14 25 7 56 14 70 17
14 2 45 11 70 18 25 8 56 17 70 19 14 3 34 7 45 10 11 3 254 64 540 137 286
72 531 133 544 136 13 3 85 21 160 40 75 20 143 37 151 39 28 7 295 73 400
100 58 15 112 28 120 30 8 2 195 49 415 105 220 55 409 103 420 105 11 2 146
36 300 75 154 39 288 74 298 76 9 2 25 6 35 8 9 2 163 41 342 86 179 45 333
84 343 86 26 6 38 9 232 59 99 25 189 48 200 50 11 3 92 23 180 45 188 48 192
50 225 56 14 3 34 8 45 11 11 4 25 8 30 9 6 1 253 63 550 138 297 75 551 139
565 142 14 2 32 7 40 10 8 3 26 8 40 11 43 9 55 11 55 13 0 1 7 3 15 5 8 1 80
19 160 40 80 20 156 39 170 41 14 3 39 9 56 15 17 5 40 11 50 13 10 2 165 41
344 86 179 45 332 83 340 85 8 2 312 78 675 170 363 91 795 200 960 241 165
41 309 77 320 80 39 10 370 95 385 99 9 1 144 35 300 75 157 39 292 73 300 75
26 5 462 115 523 131 32 8 66 17 75 19 9 2 98 24 197 49 99 26 193 49 209 52
16 2 37 9 47 15 11 5 19 8 19 5 0 -2 40 6 90 20 49 13 100 26 112 28 13 3 203
51 423 106 220 56 407 103 415 105 8 2 159 40 335 85 176 44 331 83 345 86 14
3 59 14 100 25 41 11 82 22 90 24 12 3 110 27 200 50 758 190 924 224 1170
241 47 3 87 8 89 10 6 6 560 -4 606 -11z"/>
</g>
</svg>
