<?xml version="1.0" standalone="no"?>
<!DOCTYPE svg PUBLIC "-//W3C//DTD SVG 20010904//EN"
 "http://www.w3.org/TR/2001/REC-SVG-20010904/DTD/svg10.dtd">
<svg version="1.0" xmlns="http://www.w3.org/2000/svg"
 width="4096.000000pt" height="4096.000000pt" viewBox="0 0 4096.000000 4096.000000"
 preserveAspectRatio="xMidYMid meet">
<metadata>
Created by potrace 1.14, written by Peter Selinger 2001-2017
</metadata>
<g transform="translate(0.000000,4096.000000) scale(0.100000,-0.100000)"
fill="#000000" stroke="none">
<path d="M19969 38396 c-2 -2 -83 -7 -179 -10 -96 -4 -202 -9 -235 -11 -33 -2
-105 -7 -160 -10 -55 -3 -129 -8 -165 -10 -120 -10 -195 -16 -245 -20 -27 -3
-77 -7 -110 -10 -75 -6 -123 -11 -300 -30 -226 -25 -239 -26 -266 -31 -15 -2
-47 -6 -70 -9 -89 -11 -146 -18 -229 -30 -14 -2 -44 -7 -67 -10 -23 -3 -55 -8
-70 -10 -107 -15 -240 -36 -253 -40 -8 -3 -33 -7 -55 -10 -22 -2 -65 -9 -95
-15 -30 -6 -71 -13 -90 -16 -19 -3 -57 -9 -85 -15 -27 -5 -59 -11 -70 -13 -18
-3 -62 -11 -125 -23 -112 -20 -515 -106 -630 -134 -47 -11 -96 -23 -109 -25
-14 -3 -28 -7 -31 -9 -4 -2 -22 -7 -41 -10 -46 -9 -51 -10 -74 -18 -11 -3 -31
-8 -45 -11 -96 -19 -720 -192 -940 -261 -268 -85 -646 -210 -700 -232 -8 -3
-17 -7 -20 -7 -3 -1 -18 -6 -35 -13 -16 -6 -88 -33 -160 -58 -251 -91 -789
-308 -983 -396 -34 -16 -64 -29 -66 -29 -2 0 -52 -22 -110 -50 -58 -27 -108
-50 -111 -50 -25 0 -889 -433 -1065 -534 -25 -14 -54 -30 -65 -35 -11 -5 -51
-27 -90 -48 -38 -22 -92 -52 -120 -68 -648 -363 -1313 -799 -1979 -1298 -185
-138 -452 -348 -591 -465 -22 -18 -45 -37 -52 -43 -93 -72 -478 -406 -614
-531 -20 -18 -62 -57 -95 -87 -255 -232 -737 -710 -984 -977 -36 -38 -92 -99
-125 -134 -33 -36 -112 -123 -174 -195 -63 -71 -117 -132 -121 -135 -32 -28
-410 -487 -586 -711 -74 -96 -141 -181 -147 -189 -44 -54 -315 -425 -417 -570
-355 -505 -791 -1202 -1029 -1645 -12 -22 -34 -62 -49 -90 -97 -176 -141 -262
-276 -530 -83 -165 -168 -336 -188 -380 -20 -44 -62 -133 -93 -199 -30 -65
-55 -120 -55 -122 0 -2 -13 -32 -29 -66 -69 -151 -144 -329 -141 -336 0 -1 -6
-15 -14 -30 -9 -15 -49 -110 -89 -212 -94 -234 -90 -223 -93 -235 -1 -5 -24
-64 -50 -130 -66 -171 -123 -331 -226 -640 -49 -148 -92 -277 -95 -285 -4 -8
-7 -19 -9 -25 -3 -12 -80 -269 -93 -310 -57 -179 -234 -852 -265 -1005 -3 -14
-21 -95 -41 -180 -19 -85 -38 -171 -41 -190 -3 -19 -7 -43 -10 -52 -3 -9 -7
-27 -10 -40 -8 -37 -24 -121 -29 -148 -2 -14 -16 -86 -30 -160 -14 -74 -28
-148 -31 -165 -2 -16 -7 -37 -9 -45 -2 -8 -7 -39 -10 -69 -4 -30 -9 -63 -11
-75 -14 -64 -23 -117 -29 -165 -4 -30 -8 -61 -10 -70 -1 -9 -8 -52 -15 -96 -6
-44 -13 -91 -15 -105 -2 -14 -11 -81 -20 -150 -8 -69 -18 -141 -20 -160 -7
-46 -15 -114 -20 -170 -2 -25 -7 -63 -9 -85 -3 -22 -8 -67 -11 -100 -4 -33 -8
-71 -10 -85 -2 -14 -7 -63 -10 -110 -4 -47 -8 -96 -10 -110 -2 -14 -7 -70 -10
-125 -4 -55 -8 -116 -10 -135 -3 -31 -10 -149 -20 -325 -16 -273 -20 -466 -20
-970 0 -518 4 -709 20 -980 3 -44 7 -122 10 -174 3 -52 8 -117 10 -145 3 -28
7 -84 10 -124 5 -89 14 -194 20 -247 11 -93 14 -124 20 -199 4 -43 8 -86 10
-95 1 -9 6 -50 10 -91 4 -41 9 -82 10 -91 2 -9 6 -40 10 -70 15 -129 16 -140
49 -374 14 -98 51 -330 61 -390 3 -16 10 -57 16 -90 28 -165 37 -215 75 -405
46 -231 97 -471 140 -650 38 -160 44 -188 45 -195 0 -2 5 -19 10 -37 10 -33
15 -52 23 -86 47 -197 164 -609 268 -937 74 -235 258 -774 296 -865 6 -14 41
-104 77 -200 37 -96 73 -188 80 -205 7 -16 39 -93 70 -170 65 -158 170 -402
222 -515 19 -41 42 -91 50 -110 51 -115 82 -178 239 -495 95 -192 219 -433
275 -535 55 -102 117 -214 137 -250 19 -36 46 -82 59 -102 12 -21 23 -40 23
-42 0 -5 19 -37 143 -246 103 -174 242 -398 306 -495 36 -55 68 -105 71 -111
6 -12 296 -443 366 -544 144 -204 410 -562 578 -775 133 -169 375 -466 390
-480 6 -5 33 -37 61 -70 47 -57 131 -153 274 -314 402 -454 972 -1023 1421
-1421 58 -52 137 -122 175 -156 39 -34 88 -77 111 -96 22 -18 110 -91 195
-162 85 -70 174 -145 198 -165 36 -30 365 -287 451 -352 142 -109 212 -159
219 -159 5 0 11 -4 13 -8 3 -8 110 -87 283 -209 85 -60 646 -437 660 -443 12
-5 244 -149 332 -206 29 -19 55 -34 58 -34 4 0 101 -59 161 -98 10 -7 30 -18
44 -25 14 -7 57 -31 95 -53 72 -43 98 -58 200 -114 33 -18 65 -36 70 -40 10
-8 98 -55 297 -161 123 -65 690 -347 803 -399 219 -101 324 -147 533 -236 17
-8 47 -20 65 -28 81 -35 125 -53 312 -127 110 -44 209 -84 220 -89 11 -5 90
-34 175 -66 676 -247 1330 -449 1913 -590 9 -2 25 -6 35 -9 30 -8 317 -75 352
-81 13 -3 60 -14 105 -24 69 -16 325 -69 408 -85 15 -3 39 -7 55 -10 37 -8
192 -36 217 -41 11 -1 47 -7 80 -13 33 -6 76 -13 95 -16 19 -3 46 -7 60 -10
14 -3 41 -7 60 -10 19 -3 46 -7 60 -10 43 -7 104 -17 130 -20 14 -1 45 -5 70
-9 61 -10 77 -12 215 -31 167 -22 184 -24 235 -30 25 -3 63 -7 85 -10 60 -7
122 -13 200 -20 39 -4 80 -8 92 -10 12 -2 57 -6 100 -10 43 -3 96 -8 118 -10
38 -4 110 -10 250 -20 33 -2 105 -7 160 -10 55 -3 127 -8 160 -10 402 -27
1562 -27 1960 0 28 2 101 6 164 9 63 4 135 9 160 11 25 3 78 7 116 10 108 8
185 14 240 20 28 3 77 7 110 10 58 5 133 13 185 20 14 2 55 6 92 10 37 3 75 7
85 9 10 2 45 7 78 10 33 4 71 8 85 11 14 2 48 7 75 10 70 8 116 14 230 31 55
9 114 17 130 20 17 2 46 6 65 10 19 3 44 7 55 8 45 7 102 17 125 21 13 3 42 7
65 10 22 3 54 8 70 12 17 3 39 7 50 9 40 6 331 62 465 89 148 30 357 76 460
101 36 9 74 18 85 20 11 2 83 20 160 39 77 20 150 38 163 40 35 8 334 90 457
125 271 78 285 82 570 173 128 41 484 163 600 205 166 61 201 74 220 82 11 4
47 18 80 30 33 13 74 29 90 35 17 7 80 32 140 55 61 24 128 51 151 61 22 10
65 27 95 39 30 12 77 32 106 46 28 13 55 24 58 24 3 0 31 11 61 25 30 14 82
37 117 51 34 15 96 42 137 61 72 34 127 59 255 118 101 46 593 291 722 359
140 74 297 159 393 213 19 11 60 34 91 51 47 26 185 106 311 181 401 237 861
536 1270 825 187 133 720 534 738 556 3 3 34 28 70 55 36 27 81 64 100 82 19
18 38 33 42 33 4 0 13 6 20 13 7 8 56 49 108 92 52 43 97 81 100 84 3 3 48 42
100 86 52 44 100 85 105 90 6 6 44 40 85 76 41 35 81 71 90 79 9 8 56 51 105
95 368 332 900 863 1235 1235 8 9 33 37 56 61 261 284 697 814 982 1193 62 83
123 164 135 179 43 57 225 314 317 447 32 47 62 90 67 95 9 12 265 402 340
520 116 182 393 647 493 830 18 33 41 74 50 90 139 249 399 759 523 1025 66
142 95 205 132 290 21 47 50 112 65 145 43 93 156 363 211 503 27 70 54 136
58 147 73 166 411 1134 437 1250 1 6 19 62 38 125 20 63 38 124 41 135 2 11
11 43 19 70 55 189 82 288 135 495 33 129 62 246 65 260 3 14 19 84 35 155 38
161 64 277 102 470 17 83 33 159 35 170 2 11 7 36 10 55 3 19 7 42 9 50 3 8 7
32 11 54 3 21 8 48 10 60 2 11 7 35 9 51 3 17 10 56 16 88 5 32 12 72 14 88 2
17 6 42 9 57 3 15 8 43 11 62 3 19 7 46 10 60 3 14 7 43 10 65 2 22 7 49 9 60
2 11 7 43 10 70 4 28 9 61 11 75 2 14 6 47 10 73 4 27 8 56 10 66 2 9 6 48 10
86 3 38 8 72 10 75 2 3 6 37 9 75 3 39 8 81 10 95 2 14 7 54 11 90 4 36 8 76
10 90 1 14 6 61 9 105 4 44 9 96 11 115 3 19 7 66 10 103 2 37 7 91 9 120 12
124 20 252 32 467 3 69 9 150 12 180 3 30 7 4239 9 9353 l3 9297 -9213 0
c-5068 0 -9216 -2 -9218 -4z m7676 -14495 c-1 -2060 -5 -3780 -9 -3821 -25
-310 -34 -397 -40 -438 -3 -15 -7 -47 -10 -72 -8 -72 -48 -326 -62 -392 -2
-13 -7 -39 -10 -58 -3 -19 -7 -43 -10 -52 -3 -10 -7 -30 -10 -45 -3 -16 -7
-36 -10 -45 -3 -9 -7 -27 -10 -40 -2 -13 -6 -32 -9 -43 -2 -11 -6 -30 -9 -43
-49 -224 -168 -613 -271 -887 -108 -287 -312 -727 -440 -949 -25 -44 -45 -83
-45 -88 0 -4 -4 -8 -10 -8 -5 0 -10 -5 -10 -12 0 -24 -244 -404 -384 -598
-159 -220 -264 -352 -450 -564 -237 -270 -563 -585 -836 -806 -30 -25 -57 -47
-60 -51 -25 -28 -398 -298 -556 -401 -379 -248 -792 -466 -1209 -638 -355
-146 -834 -297 -1157 -364 -13 -3 -34 -7 -48 -10 -66 -15 -187 -39 -205 -42
-30 -5 -137 -23 -164 -29 -14 -2 -59 -9 -101 -15 -42 -6 -85 -12 -96 -14 -10
-2 -50 -7 -87 -11 -37 -3 -76 -8 -85 -9 -34 -7 -195 -19 -402 -32 -226 -14
-812 -7 -950 11 -19 2 -69 7 -110 11 -41 3 -86 7 -100 9 -14 2 -50 6 -80 9
-591 70 -1176 217 -1750 441 -143 55 -159 62 -360 153 -202 91 -665 334 -690
362 -3 3 -21 14 -40 24 -47 26 -368 234 -415 269 -272 203 -469 358 -610 482
-185 162 -507 487 -646 650 -19 22 -41 47 -49 55 -21 21 -171 205 -256 315
-163 211 -397 561 -506 755 -14 25 -35 63 -48 85 -144 251 -308 595 -423 890
-131 333 -253 727 -303 974 -3 14 -7 28 -9 31 -2 4 -7 22 -10 41 -3 19 -11 54
-16 79 -6 25 -13 56 -15 70 -2 14 -9 45 -14 70 -8 40 -15 76 -34 195 -3 17 -8
48 -10 70 -3 22 -8 49 -10 61 -2 12 -7 45 -11 75 -3 30 -8 72 -12 94 -7 53
-10 84 -18 185 -4 47 -9 98 -10 113 -24 200 -24 932 0 1111 2 17 7 68 10 113
3 46 8 92 10 103 2 11 6 47 9 79 3 33 8 75 11 95 3 20 7 53 10 74 5 33 17 113
31 197 2 17 11 64 19 105 8 41 17 90 20 109 3 19 7 37 9 40 2 3 7 22 10 41 9
55 92 384 126 500 17 58 33 116 36 129 3 14 8 29 12 35 3 6 7 16 8 21 1 6 25
75 53 155 28 80 53 150 55 155 1 6 7 19 11 30 4 11 29 74 56 140 26 66 59 146
73 177 14 31 26 59 26 62 0 7 101 222 132 281 9 17 25 48 36 70 32 67 193 359
207 375 6 8 23 35 36 60 13 24 50 84 82 132 31 48 57 92 57 97 0 5 3 11 8 13
4 2 33 41 64 88 68 100 114 167 128 183 6 7 40 53 77 102 36 50 82 110 102
135 20 25 41 51 46 58 21 27 185 221 230 271 169 191 467 486 640 632 22 19
49 43 61 54 12 11 30 27 40 35 11 8 55 44 99 80 44 36 109 88 145 115 36 27
70 53 75 58 12 10 284 204 305 217 8 5 39 26 69 46 65 44 309 191 371 224 25
14 52 30 60 36 20 16 441 229 550 278 314 141 781 309 1060 381 261 67 403 99
570 129 47 9 96 18 110 21 13 2 42 7 65 10 60 9 138 20 205 30 79 12 137 18
275 30 50 4 98 9 107 11 10 1 86 6 170 9 84 4 154 8 156 10 1 1 1662 2 3691 3
l3689 0 -3 -3747z"/>
</g>
</svg>
